<svg version="1.2" xmlns="http://www.w3.org/2000/svg" viewBox="0 0 296 161" width="296" height="161"><defs><clipPath clipPathUnits="userSpaceOnUse" id="cp1"><path d="m23-0.69h23v147.69h-23z"/></clipPath><clipPath clipPathUnits="userSpaceOnUse" id="cp2"><path d="m0.07 41h69.75v120.31h-69.75z"/></clipPath></defs><style>.a{fill:#5271ff}.b{fill:#ff3131}.c{fill:#004aad}.d{fill:#c73331}</style><g clip-path="url(#cp1)"><path class="a" d="m23.7 145.7l18.4-146.4 3.7 0.5-18.4 146.4z"/></g><path class="b" d="m65.2 60.7l-10.7 97.4h-39l-10.7-97.4c2.6-5.5 6.7-9.1 10.8-11.5h12.5l-8-41.7 3.6-0.7 8.1 42.4h22.6c4.2 2.4 8.2 6 10.8 11.5z"/><path fill-rule="evenodd" class="a" d="m18.3 54.3c-0.6-1.7-1-3.4-1.2-5.1h37.3c0.1 0.1 0.2 0.1 0.2 0.2q0 0.5-0.1 1.1c-0.6 5-3.1 9.9-7.3 12.7-1.3 0.9-2.7 1.5-4.2 2-4.7 1.5-10 1.4-14.5-0.5-4.6-2-8.4-5.8-10.2-10.4zm23.6 90.1c-2.2 1.6-4 3.7-6.1 5.5-4.8 3.9-11.2 2.9-17.1 3.3q-1.9 0.1-3.7 0.5l0.5 4.4h39l1.8-17c0 0-0.1 0-0.2 0-4.9-0.7-10.2 0.4-14.2 3.3zm-17.7-24.5c1.4-2.4 1.8-5.4 0.7-8-1.1-2.8-3.8-4.8-6.7-5.8-2.7-0.8-5.6-0.9-8.5-0.8l2.3 21.5c2.1-0.2 4.1-0.8 6-1.6 2.6-1.1 4.8-2.9 6.2-5.3zm-8 18.9c-0.3-1.7-1.4-3.1-2.8-4q-0.2-0.1-0.5-0.2l1.1 10q0.2-0.1 0.3-0.2c1.3-1.6 2.3-3.6 1.9-5.6zm20-92.4l3.7 0.5q0 0 0.1 0c0.1 0 0.4-0.1 0.5-0.2 0.1-0.1 0.3-0.3 0.3-0.5l2.9-23.4c0.1-0.4-0.2-0.9-0.7-0.9l-3.6-0.5c-0.2 0-0.5 0.1-0.7 0.2-0.1 0.1-0.3 0.3-0.3 0.6l-2.9 23.3c-0.1 0.5 0.2 0.9 0.7 0.9zm5.1 85.6c0.8-0.4 1.6-1.1 2.3-1.3 1.2-0.5 2.5 0 3.6 0.4 1.2 0.3 2.6 0.5 3.8 0.4q0.7-0.1 1.3-0.4c1-0.7 0.8-1.6 0.2-2.4-0.9-1.3-2.4-2.2-4-2.4-2.3-0.3-4.9 0.4-6.9 1.4-2 0.9-4 1.8-5.8 3-0.4 0.3-0.8 0.7-0.8 1.2 0 0.5 0.6 0.8 1.1 1 1.7 0.5 3.6-0.1 5.2-0.9zm16-3.7c0.1 0 0.3 0.1 0.5 0.1l0.2-1.8c0 0 0 0-0.1 0.1zm7.6-67c-0.2 0-0.2 0.2-0.1 0.3q0.1 0.1 0.2 0.1c0.1 0 0.2 0 0.2 0l-1 8.6-0.2-1.6c-0.1-0.1-0.2-0.2-0.3-0.2-0.2 0-0.2 0.1-0.2 0.3l0.4 2.2q0 0.2 0.2 0.2h0.1l-0.1 0.7-1.1 0.3q-0.1 0-0.1 0.1-0.1 0.1-0.1 0.2c0 0 0 0 0.1 0.1q0 0.1 0.2 0.1 0 0 0 0l0.9-0.2-0.8 6.9 0.1-0.3c-0.1-0.1-0.2-0.1-0.2-0.1l-0.3 0.1-1.4 0.4c-0.2 0.1-0.3 0.2-0.2 0.3q0 0.2 0.2 0.2c0.1 0 0.1 0 0.1 0l1.3-0.4 0.4-0.1-0.2 2.2h-0.2l-0.4-0.4c-0.1-0.1-0.2-0.1-0.3 0.1q-0.1 0.2 0 0.3l0.8 0.6v0.1l-0.2 2.2v-0.4l-0.5 0.1c-0.1 0.1-0.2 0.2-0.2 0.3q0.1 0.2 0.3 0.2h0.3l-0.4 3.7-0.3 0.2c-0.1 0.1-0.1 0.3-0.1 0.4q0.1 0.1 0.3 0.1c0 0 0 0 0 0v0.6l-0.3 0.5-0.7 1q-0.1 0.2 0.1 0.4 0.1 0 0.2 0 0.1 0 0.2-0.1l0.3-0.6-0.3 3.5v-0.1l-0.4-0.6c-0.1-0.2-0.2-0.2-0.3-0.2-0.2 0.1-0.2 0.2-0.2 0.4l0.7 1.3-0.8 7.6q-0.1 0-0.1 0l-1.8-0.2c-0.1 0-0.2 0.1-0.2 0.2 0 0.1 0 0.2 0.2 0.3l1.7 0.2h0.1l-0.2 1.8 0.1-0.6-0.2-0.6c0-0.1-0.2-0.2-0.3-0.1-0.2 0.1-0.2 0.2-0.2 0.4l0.6 1.4-0.4 3.6q0 0 0 0.1l-1.4 1.1c-0.1 0.1-0.1 0.2 0 0.4q0 0 0.2 0c0 0 0.1 0 0.1 0l1.1-0.9-0.2 1.7v-0.5q0 0-0.1 0c-0.1 0.1-0.1 0.2-0.1 0.4l0.2 0.3-1.3 11.1v-0.1l-1.1 1.1c-0.2 0-0.2 0.2-0.1 0.3 0.1 0.1 0.1 0.1 0.2 0.1 0 0 0.1 0 0.2 0l0.7-0.7-0.1 1.4-0.3 0.1c-0.1 0-0.2 0.1-0.2 0.2q0.1 0.2 0.3 0.2 0 0 0 0h0.1l0.1-0.3-0.2 1.5c0-0.1 0-0.2-0.2-0.2-0.1-0.1-0.2 0-0.3 0.1l-0.7 1.5c-1.1-0.4-2.1-0.9-3.3-1.4l1.3-0.8q0.2-0.2 0.1-0.4-0.1-0.1-0.3 0l-1.5 0.9c-0.1 0-0.1 0.1-0.1 0.1q-0.1-0.1-0.2-0.2c-0.5-0.2-1.1-0.4-1.7-0.6l1.6-1.7c0.1-0.1 0.1-0.3 0-0.4-0.1-0.1-0.3-0.1-0.4 0l-1.5 1.7q-0.1 0.1-0.1 0.2-0.6-0.2-1.2-0.4l-0.6-0.9q-0.1-0.2-0.3-0.1c-0.1 0.1-0.2 0.2-0.1 0.3l0.3 0.7c-0.5-0.1-1.1-0.2-1.6-0.2l-1.1-1.9c-0.1-0.1-0.2-0.2-0.3-0.1q-0.2 0.1-0.1 0.3l0.9 1.7c-0.4 0.1-0.7 0.1-1.1 0.2q-0.7 0.1-1.4 0.3l-0.4-0.1c-0.2 0-0.3 0-0.3 0.2 0 0 0 0.1 0 0.1q-1.9 0.7-3.7 1.2c-0.1-0.1-0.2-0.2-0.3-0.2l-0.3 0.1-1.5 0.4c0 0.1-0.1 0.1-0.1 0.2q-0.9 0.1-1.8 0.1c-0.5 0-1.1 0-1.6-0.2l0.2-0.3c0-0.2 0-0.3-0.2-0.4-0.1 0-0.3 0-0.3 0.2l-0.2 0.4c-0.3-0.1-0.7-0.2-1-0.4l0.3-2.4c0-0.1-0.1-0.2-0.3-0.2-0.1 0-0.2 0.1-0.2 0.2l-0.2 2.2c-0.4-0.2-0.7-0.4-1-0.6 0.1-0.1 0.1-0.2 0-0.3q-0.1-0.2-0.3-0.1h-0.1c-0.3-0.3-0.7-0.7-1-1.2l0.1-1.1c0-0.2-0.1-0.3-0.2-0.3-0.2 0-0.3 0.1-0.3 0.2l-0.1 0.4c-0.2-0.6-0.4-1.3-0.5-2 0 0 0.1 0.1 0.1 0.1l1.6 0.8c0 0 0.1 0 0.1 0q0.2 0 0.2-0.1c0.1-0.1 0-0.3-0.1-0.3l-1.6-0.8c-0.1 0-0.3 0-0.3 0.1 0 0.1 0 0.2 0 0.2 0-0.3-0.1-0.7-0.1-1l1.1-0.9c0.1-0.1 0.1-0.2 0-0.4 0-0.1-0.2-0.1-0.3 0l-0.7 0.6c0-0.6 0.1-1.2 0.3-1.8l1.5 0.7q0.1 0 0.1 0 0.1 0 0.3-0.2c0-0.1 0-0.3-0.2-0.3l-1.5-0.7c0.3-1.1 0.9-2.2 1.7-3.1l0.2 0.5q0.1 0.1 0.2 0.1 0.1 0 0.2 0 0.2-0.2 0.1-0.4l-0.3-0.5-0.2-0.2q0.5-0.5 1-0.9l0.2 0.2c0.1 0 0.2 0 0.2 0 0.1 0 0.1 0 0.2-0.1 0.1-0.1 0.1-0.2 0-0.3l-0.2-0.1c0.7-0.6 1.5-1.2 2.2-1.8 0 0.1 0.1 0.1 0.1 0.1 0.1 0 0.1 0 0.2 0l1.3-1.1c0.2-0.1 0.2-0.3 0.1-0.4-0.1-0.1-0.3-0.1-0.3-0.1l-0.2 0.2c2.1-3 0.4-4.5-2.2-5.3l0.5-1.2c0-0.1 0-0.3-0.2-0.3-0.1-0.1-0.3 0-0.3 0.1l-0.5 1.2c-1.6-0.4-3.4-0.7-4.8-0.8l0.1-0.3c0-0.1 0-0.3-0.1-0.3-0.2-0.1-0.3 0-0.4 0.1l-0.1 0.5q-0.2 0-0.3-0.1c-1 0-2.1-0.2-3.1-0.4v-1.2c0-0.2-0.1-0.3-0.3-0.3-0.1 0-0.2 0.1-0.2 0.3v1.1c-1.9-0.5-3.6-1.4-4.9-3.1q-1.3-1.6-2-3.5l0.1-0.1c0.1 0 0.2-0.2 0.2-0.3-0.1-0.1-0.2-0.2-0.3-0.1h-0.1c-0.6-1.9-0.5-4 0.3-5.9 0 0 0.1 0 0.1 0l1.4-1.2c0.1 0 0.1-0.2 0-0.3-0.1-0.1-0.2-0.1-0.3 0l-0.6 0.5c0.9-1.4 2.3-2.4 3.8-3 0.1 0.1 0.1 0.2 0.2 0.2q0.1 0 0.1 0l1.7-0.7c0 0 0.1-0.1 0.1-0.2q0.8-0.2 1.5-0.3l-0.3 0.7c0 0.2 0 0.3 0.2 0.4 0 0 0 0 0.1 0q0.2 0 0.2-0.2l0.4-1.1c0.4-0.1 0.8-0.1 1.2-0.1 0.6-0.1 1.3-0.2 2-0.3q-0.3 0.1-0.5 0.1l1 0.8c0 0 0.1 0 0.1 0 0.1 0 0.2 0 0.2-0.1q0.2-0.2 0-0.3l-0.6-0.5c0.8-0.1 1.7-0.1 2.5-0.2l-0.3 1.4c-0.1 0.1 0 0.3 0.1 0.3 0.1 0 0.1 0 0.1 0 0.1 0 0.2-0.1 0.3-0.2l0.3-1.5q0.7-0.1 1.4-0.1c-0.1 0.1-0.1 0.3 0 0.4l1.2 1.2c0.1 0.1 0.2 0.1 0.2 0.1q0.1 0 0.2-0.1c0.1 0 0.1-0.2 0-0.3l-1.3-1.3c0.7 0 1.3 0 1.9 0l0.1 0.4q0.1 0.2 0.3 0.2c0.1 0 0.3-0.2 0.2-0.3v-0.3q0.4 0 0.8 0l-0.3 0.2c-0.1 0.1-0.1 0.2 0 0.3q0.1 0.1 0.2 0.1c0.1 0 0.1 0 0.2 0l0.7-0.6c1.9 0 3.8 0 5.6-0.5l0.7 0.7c0 0 0.1 0 0.2 0 0 0 0.1 0 0.2-0.1q0.1-0.2-0.1-0.3l-0.5-0.4c0.7-0.2 1.4-0.5 1.9-0.9 0 0.1 0 0.1 0 0.2l-0.3 1.7c-0.1 0.1 0 0.2 0.2 0.3q0.2 0 0.3-0.2l0.3-1.7c0-0.2-0.1-0.3-0.2-0.3q-0.1 0-0.1 0 0 0 0 0c0.3-0.2 0.7-0.5 1-0.8l0.2 0.1c0.1 0.1 0.2 0.1 0.2 0.1 0.1 0 0.1-0.1 0.2-0.1q0.1-0.2 0-0.3l-0.2-0.2c1.2-1.2 2-2.8 2.5-4.4l0.1 0.1q0 0.2 0.2 0.2h0.1c0.1 0 0.2-0.1 0.1-0.3l-0.2-1q0.2-0.7 0.4-1.5l0.4 0.7q0.1 0.2 0.2 0.2 0.1 0 0.2-0.1c0.1-0.1 0.1-0.2 0.1-0.3l-0.8-1.2c0 0 0 0.1 0 0.1 0.1-0.5 0.1-1.1 0.2-1.7h0.1q0.1 0 0.2-0.2l0.2-1.4c0.1-0.1-0.1-0.3-0.2-0.3 0 0 0 0-0.1 0 0.1-0.6 0.2-1.2 0.3-1.8l1.2 1c0 0 0.1 0 0.1 0 0.1 0 0.2 0 0.2 0q0.2-0.2 0-0.4l-1.4-1.1c0 0 0 0 0 0 0.2-0.9 0.3-1.8 0.6-2.7l1.1 0.4c0 0 0 0 0.1 0 0.1 0 0.2-0.1 0.2-0.2 0.1-0.1 0-0.2-0.1-0.3l-1.2-0.4c0.1-0.2 0.2-0.4 0.3-0.7l1.3-0.4c0.2 0 0.3-0.1 0.2-0.3 0-0.2-0.2-0.2-0.3-0.2l-1 0.3c0.8-1.8 2-3.5 3.4-4.9l0.3 1.2q0 0.2 0.2 0.2h0.1c0.1-0.1 0.2-0.2 0.2-0.3l-0.3-1.5c0.8-0.9 1.7-1.6 2.7-2.2l1 0.1h0.1c0.1 0 0.2-0.1 0.2-0.2 0-0.1-0.1-0.3-0.2-0.3l-0.4-0.1c0 0.1 0.6-0.3 1-0.5 0.3 0.3 0.5 0.5 0.7 0.8l-0.5 0.2c-0.1 0-0.2 0.1-0.2 0.2q0.1 0.2 0.3 0.2c0 0 0 0 0.1 0l0.7-0.2c1.1 1.4 2.2 3 3 4.8v0.2zm-34 54c0-0.1-0.1-0.2-0.2-0.2-0.1 0-0.3 0.1-0.3 0.2l-0.2 1.8c0 0.1 0.1 0.3 0.2 0.3q0 0 0.1 0c0.1 0 0.2-0.1 0.2-0.3zm31.7-29.5v0.1l0.1-0.5q-0.1 0-0.2 0c-0.1 0.1-0.1 0.3 0.1 0.4zm-0.4-27.8l0.8 0.6 0.6 0.5c0 0.1 0.1 0.1 0.2 0.1 0 0 0.1-0.1 0.2-0.1q0.1-0.2-0.1-0.3l-0.9-0.8-0.4-0.4q-0.2-0.1-0.4 0.1c-0.1 0-0.1 0.2 0 0.3zm-1.3 2.2c-0.1 0.1-0.1 0.3 0 0.4q0.1 0 0.2 0.1c0.1 0 0.1 0 0.2-0.1l1.3-1.1c0.2-0.1 0.2-0.2 0.1-0.3-0.1-0.2-0.3-0.2-0.3-0.1zm-9.7 53.8l0.3-0.9c0-0.1-0.1-0.2-0.2-0.3-0.1 0-0.3 0.1-0.3 0.2l-0.4 1-0.3 1.2c-0.1 0.2 0 0.3 0.1 0.4 0.1 0 0.1 0 0.1 0 0.1 0 0.2-0.1 0.3-0.2zm-0.6 2.3c-0.1-0.1-0.3 0-0.3 0.1l-0.9 1.5q-0.1 0.2 0.1 0.4 0 0 0.1 0 0.1 0 0.2-0.1l0.9-1.5c0.1-0.2 0.1-0.3-0.1-0.4zm-7.1-25l0.4 1.7q0.1 0.2 0.3 0.2c0 0 0 0 0.1 0 0.1 0 0.2-0.2 0.1-0.3l-0.5-1.7c0-0.2-0.1-0.2-0.3-0.2-0.1 0-0.2 0.2-0.1 0.3zm0.2-2.5c0 0.1 0.1 0.3 0.2 0.3q0 0 0 0c0.2 0 0.3-0.2 0.3-0.3l-0.1-1.8c0-0.1-0.2-0.2-0.3-0.2-0.1 0-0.2 0.1-0.2 0.2zm-0.4 6.6c-0.1 0.1-0.1 0.2 0 0.3 0 0 0.1 0.1 0.2 0.1 0.1 0 0.1 0 0.2-0.1l1.3-1.1c0.2-0.1 0.2-0.2 0.1-0.3-0.1-0.1-0.3-0.1-0.3 0zm5.4-8.1c-0.2 0-0.2 0.2-0.1 0.3 0.1 0.1 0.1 0.1 0.2 0.1 0.1 0 0.2 0 0.2-0.1l1.4-1c0.1-0.1 0.1-0.3 0-0.3 0-0.2-0.2-0.2-0.3-0.1zm0.3-1.5c0 0 0 0 0.1 0q0.2 0 0.2-0.2l0.6-1.7c0-0.1 0-0.3-0.2-0.3-0.1 0-0.2 0-0.3 0.2l-0.6 1.6c0 0.2 0.1 0.3 0.2 0.4zm8.8 9.7c0-0.1 0-0.2-0.2-0.2l-1.8-0.1c-0.1 0-0.2 0.1-0.2 0.2q0 0.3 0.2 0.3h1.8c0.1 0 0.2-0.1 0.2-0.2zm-0.1 1c0-0.1-0.2-0.2-0.3-0.2-0.1 0-0.2 0.1-0.2 0.2v1.8c0 0.1 0.1 0.3 0.3 0.3 0.1 0 0.2-0.2 0.2-0.3zm-3.5 14.2c0-0.1-0.1-0.2-0.3-0.1l-1.7 0.5c-0.1 0-0.2 0.1-0.1 0.3q0 0.2 0.2 0.1c0 0 0 0 0.1 0l1.7-0.4c0.1-0.1 0.2-0.3 0.1-0.4zm-0.1 4.6l-0.1 1.8c0 0.1 0 0.3 0.2 0.3q0 0 0 0c0.1 0 0.3-0.1 0.3-0.2l0.1-1.9c0-0.1-0.1-0.2-0.2-0.2-0.2 0-0.3 0.1-0.3 0.2zm-0.6-2.3c0 0 0 0 0 0 0.2 0 0.2-0.1 0.3-0.2 0-0.1-0.1-0.3-0.2-0.3l-1.2-0.5c-0.1 0-0.3 0.1-0.3 0.2-0.1 0.1 0 0.3 0.1 0.3zm-0.1 1.2v-0.1c0-0.2-0.1-0.3-0.2-0.3-0.2 0-0.3 0.1-0.3 0.3v1.3c0 0.2 0.1 0.3 0.3 0.3 0.1 0 0.2-0.1 0.2-0.3zm-13.3-0.9c-0.1-0.1-0.2-0.2-0.3-0.2-0.2 0-0.2 0.1-0.2 0.3l0.1 0.8 0.2 0.9q0.1 0.2 0.2 0.2h0.1c0.1 0 0.2-0.2 0.2-0.3l-0.2-0.8zm0.1-2.4c0 0 0.1 0 0.1 0 0.1 0 0.1 0 0.2 0q0.2-0.2 0-0.4l-1.2-1-0.2-0.1q-0.2-0.1-0.3 0.1-0.1 0.1 0 0.3l0.5 0.3zm-0.4 5.8l0.4 2.1q0.1 0.2 0.2 0.2h0.1c0.1 0 0.2-0.1 0.2-0.2l-0.4-2.2c-0.1-0.2-0.2-0.2-0.3-0.2-0.2 0-0.3 0.1-0.2 0.3zm-1.8-19.2c-0.1 0-0.2 0.1-0.2 0.3q0 0.2 0.2 0.2l1.2 0.1h0.6q0 0 0 0c0.2 0 0.3 0 0.3-0.2 0-0.1-0.1-0.2-0.3-0.2l-0.6-0.1zm0.5-3.5c0 0 0 0 0.1 0 0.1 0 0.2 0 0.2-0.1l0.4-0.9 0.2-0.8c0.1-0.1 0-0.3-0.1-0.3q0 0-0.1 0-0.1 0-0.2 0.2l-0.6 1.6c-0.1 0.2 0 0.3 0.1 0.3zm2.8 12.3c-0.2 0-0.2 0.2-0.1 0.3q0.1 0.1 0.2 0.1c0.1 0 0.2 0 0.2-0.1l1.7-1.2c0.1-0.1 0.1-0.3 0-0.4-0.1-0.1-0.3-0.1-0.3 0zm0.2-3.3l1.4 1.1c0 0.1 0.1 0.1 0.1 0.1 0.1 0 0.2-0.1 0.2-0.1q0.2-0.2 0-0.4l-1.4-1.1q-0.2-0.1-0.3 0c-0.1 0.2-0.1 0.3 0 0.4zm1.8-4.9l-0.9-1.6c-0.1-0.1-0.2-0.1-0.4 0-0.1 0-0.1 0.2 0 0.3l0.9 1.5q0 0.1 0.2 0.1 0 0 0.1 0c0.1-0.1 0.2-0.2 0.1-0.3zm-1.6 1q-0.1-0.2-0.3-0.1c-0.1 0.1-0.2 0.2-0.1 0.3l1.2 1.9q0 0.1 0.2 0.1 0 0 0.1 0 0.2-0.1 0.1-0.3zm-0.1-1.2c-0.1-0.2-0.3-0.2-0.3-0.1l-1.4 1.1c-0.1 0.1-0.1 0.3 0 0.4q0 0 0.2 0c0 0 0.1 0 0.1 0l1.4-1.1c0.1-0.1 0.1-0.2 0-0.3zm-3.2 1.5l0.7 1.2 0.2 0.4q0.1 0.1 0.2 0.1 0.1 0 0.1-0.1 0.2-0.1 0.1-0.3l-0.6-1.1-0.3-0.4c-0.1-0.1-0.2-0.2-0.3-0.1-0.1 0.1-0.2 0.2-0.1 0.3zm0.7 3.7l-1.5 0.4c-0.1 0.1-0.2 0.2-0.1 0.3q0 0.2 0.2 0.2c0 0 0 0 0.1 0l1.3-0.4 0.4-0.1c0.1-0.1 0.2-0.2 0.1-0.3 0-0.1-0.1-0.2-0.2-0.2zm-0.8 2.7l0.8 0.6 0.6 0.5c0 0.1 0.1 0.1 0.1 0.1 0.1 0 0.2-0.1 0.3-0.1q0.1-0.2-0.1-0.3l-0.9-0.8-0.5-0.4q-0.2-0.1-0.3 0.1c-0.1 0-0.1 0.2 0 0.3zm2-3.3l0.9-1.5q0.1-0.2-0.1-0.3c-0.1-0.1-0.3-0.1-0.3 0.1l-0.9 1.5q-0.1 0.2 0.1 0.3 0 0.1 0.1 0.1 0.1 0 0.2-0.2zm-0.2 3.1c0 0.1 0.1 0.2 0.2 0.2h0.1q0.2 0 0.2-0.2l0.4-1.7c0-0.1-0.1-0.2-0.2-0.3-0.2 0-0.3 0.1-0.3 0.2zm0.7 6.2c0 0.1 0 0.3 0.2 0.4q0 0 0.1 0 0.1 0 0.2-0.2l0.7-1.6c0-0.1 0-0.3-0.1-0.4-0.1 0-0.3 0-0.3 0.2zm0 1.9q0 0 0.2 0.1c0 0 0.1 0 0.1-0.1l1.4-1.1c0.1-0.1 0.1-0.3 0-0.3-0.1-0.2-0.2-0.2-0.3-0.1l-1.4 1.1c-0.1 0.1-0.1 0.2 0 0.4zm1.2 1.8q0.2 0 0.2-0.2l0.3-1 0.2-0.7c0-0.1-0.1-0.2-0.3-0.3-0.1 0-0.2 0.1-0.2 0.2l-0.2 0.8-0.2 1c-0.1 0.1 0 0.2 0.2 0.2zm0.9-7.5c0.2-0.1 0.2-0.2 0.1-0.4-0.1-0.1-0.3-0.1-0.3 0l-1.8 1.5c-0.1 0.1-0.1 0.2 0 0.4q0 0 0.2 0c0 0 0.1 0 0.1 0zm1.3 0c0 0 0.1 0 0.2 0 0 0 0.1 0 0.2-0.1q0.1-0.2-0.1-0.3l-1.3-1.1q-0.2-0.2-0.4 0-0.1 0.2 0.1 0.3zm1.6-8.5c-0.1-0.1-0.2-0.2-0.3-0.1q-0.2 0.1-0.1 0.3l1.1 2q0.1 0.1 0.2 0.1 0.1 0 0.2 0 0.1-0.2 0-0.4zm0.3-0.6q0.1 0 0.1 0c0.1 0 0.2 0 0.2-0.1l0.8-2.1c0.1-0.1 0-0.3-0.1-0.3-0.1 0-0.3 0-0.3 0.1l-0.8 2c-0.1 0.3 0 0.4 0.1 0.4zm-0.5-2.7q-0.2-0.2-0.3 0l-1.2 1.4q-0.1 0.2 0.1 0.3c0 0 0.1 0 0.1 0 0.1 0 0.2 0 0.3-0.1l1.1-1.3c0.1-0.1 0-0.3-0.1-0.3zm-1.7 3.9c-0.1 0.1 0 0.3 0.1 0.3q0.1 0.1 0.1 0.1 0.2 0 0.2-0.1l0.7-1.3c0.1-0.1 0-0.3-0.1-0.3-0.1-0.1-0.3 0-0.3 0.1zm-0.5 1.7c-0.1 0-0.3 0-0.3 0.2 0 0.1 0 0.2 0.2 0.3l1.7 0.4c0 0 0 0 0 0 0.2 0 0.3-0.1 0.3-0.1 0-0.2 0-0.3-0.2-0.3zm1.3 4.6c0 0 0 0 0.1 0 0.1-0.1 0.2-0.2 0.1-0.3l-0.7-2.2c0-0.1-0.2-0.2-0.3-0.2-0.1 0.1-0.2 0.2-0.2 0.4l0.7 2.1q0.1 0.2 0.3 0.2zm0.3 6.1q0.1 0.1 0.1 0.1 0.2 0 0.2-0.1l0.9-1.6q0.2-0.2 0-0.3c-0.2-0.1-0.3 0-0.4 0.1l-0.9 1.5c-0.1 0.1 0 0.3 0.1 0.3zm0.2-8.8l1.7-0.5c0.1 0 0.2-0.2 0.2-0.3-0.1-0.1-0.2-0.2-0.3-0.1l-1.7 0.4c-0.1 0.1-0.2 0.2-0.2 0.3q0.1 0.2 0.3 0.2c-0.1 0 0 0 0 0zm2.1 1.9c0.1 0.1 0.1 0.1 0.2 0.1 0.1 0 0.1-0.1 0.2-0.1q0.1-0.2-0.1-0.3l-1.4-1.1c-0.1-0.1-0.2-0.1-0.3 0q-0.1 0.2 0 0.3zm-1.1 0.6c-0.1 0-0.3 0.1-0.3 0.3l-0.3 1.7c-0.1 0.1 0.1 0.2 0.2 0.3q0.2 0 0.3-0.2l0.3-1.8c0-0.1-0.1-0.3-0.2-0.3zm6.6-26.8q0.1 0.2 0.2 0.2 0.1 0 0.2-0.1l1.5-0.9q0.2-0.2 0-0.4c0-0.1-0.2-0.1-0.3 0l-1.5 0.9c-0.1 0.1-0.1 0.2-0.1 0.3zm0.2-1.2q0.3 0 0.3-0.2l0.2-2.3c0-0.1-0.1-0.2-0.2-0.2-0.2 0-0.3 0.1-0.3 0.2l-0.2 2.3c0 0.1 0.1 0.2 0.2 0.2zm-3.5 20.5l0.5 2.1q0.1 0.2 0.2 0.2h0.1c0.1 0 0.2-0.2 0.1-0.3l-0.4-2.1c-0.1-0.1-0.2-0.2-0.3-0.1-0.1 0-0.2 0.1-0.2 0.2zm0.2-2.7c0.2 0 0.2-0.2 0.1-0.3-0.1-0.1-0.3-0.1-0.3 0l-1.4 1.1c-0.1 0.1-0.1 0.2 0 0.3q0 0.1 0.2 0.1c0 0 0.1 0 0.1 0zm3-5.7v1.4c0 0.1 0.1 0.3 0.2 0.3 0.1 0 0.2-0.2 0.2-0.3v-1.4c0-0.1-0.1-0.2-0.2-0.2-0.1 0-0.2 0.1-0.2 0.2zm0.6-1c0 0 0 0 0.1 0 0.1 0 0.2-0.1 0.2-0.2 0-0.1 0-0.2-0.2-0.3l-1.2-0.4c-0.1 0-0.3 0-0.3 0.2-0.1 0.1 0 0.2 0.1 0.3zm-0.5 4.5c-0.1-0.1-0.3 0-0.3 0.1-0.1 0.1 0 0.3 0.1 0.3l1.6 0.7c0 0 0.1 0.1 0.1 0.1q0.1 0 0.2-0.2c0.1-0.1 0-0.3-0.1-0.3zm2.2-5.9c-0.1 0-0.2 0-0.3 0.1q-0.1 0.2 0.1 0.3l1.3 1.1c0.1 0.1 0.1 0.1 0.2 0.1q0.1 0 0.2-0.1c0.1-0.1 0.1-0.3-0.1-0.4zm0.9-4.3c-0.1-0.1-0.2 0-0.3 0.1l-0.4 1.7c0 0.2 0.1 0.3 0.2 0.3q0 0 0 0c0.1 0 0.2-0.1 0.3-0.1l0.4-1.7c0-0.2-0.1-0.3-0.2-0.3zm-1.3 6q-0.2-0.2-0.4-0.1-0.2 0.1-0.1 0.3l0.4 0.6 0.4 0.8q0.1 0.1 0.2 0.1 0.1 0 0.1 0c0.1-0.1 0.2-0.3 0.1-0.4l-0.3-0.5zm-0.5 2.1l-0.2 1.9c0 0.1 0.1 0.2 0.2 0.2q0 0 0 0c0.2 0 0.3-0.1 0.3-0.2l0.2-1.8c0-0.1-0.1-0.3-0.2-0.3-0.2 0-0.3 0.1-0.3 0.2zm-2.5 5.2c-0.1 0-0.1 0.2-0.1 0.3q0.1 0.1 0.3 0.1c0 0 0.1 0 0.1 0l1.6-1.4c0.2-0.1 0.2-0.2 0.1-0.4-0.1-0.1-0.3-0.1-0.4 0zm3.3 5.2q-0.1-0.2-0.3-0.1l-1.5 0.9c-0.1 0.1-0.2 0.2-0.1 0.4q0.1 0.1 0.2 0.1 0.1 0 0.1-0.1l1.5-0.9q0.2-0.1 0.1-0.3zm-0.5 1.6c-0.1 0-0.2 0-0.3 0.1q-0.1 0.2 0.1 0.3l1.3 1.1c0.1 0.1 0.1 0.1 0.2 0.1 0.1 0 0.1-0.1 0.2-0.1q0.1-0.2 0-0.3zm-1.3-1.7q0.2 0 0.3-0.3l0.1-2.2c0-0.2-0.1-0.3-0.2-0.3-0.1 0-0.3 0.1-0.3 0.3l-0.1 2.2c-0.1 0.1 0 0.3 0.2 0.3zm1.3-3.7l-1.6-0.8c-0.1-0.1-0.3 0-0.3 0.1-0.1 0.1 0 0.3 0.1 0.3l1.6 0.8c0 0 0.1 0.1 0.1 0.1q0.1 0 0.2-0.2 0.1-0.2-0.1-0.3zm-2.8-4c0-0.2-0.1-0.3-0.2-0.3-0.1-0.1-0.3 0-0.3 0.2l-0.2 1.4c-0.1 0.1 0.1 0.2 0.2 0.3q0.2 0 0.3-0.2zm-1 2.8q-0.1-0.2-0.3 0-0.2 0.1-0.1 0.3l0.9 1.5q0.1 0.1 0.2 0.1 0.1 0.1 0.2 0 0.2-0.1 0-0.3zm0 4.9c0 0 0.1 0.1 0.2 0.1q0.1 0 0.1-0.1l1.6-1.7c0.1-0.1 0.1-0.3 0-0.4-0.1-0.1-0.3-0.1-0.3 0l-1.6 1.7c-0.1 0.1-0.1 0.3 0 0.4zm0.7 2.9c0 0 0 0 0 0 0.1 0 0.2-0.1 0.3-0.2l0.6-1.6c0-0.2 0-0.3-0.1-0.4-0.1 0-0.3 0-0.3 0.2l-0.7 1.6q0 0.3 0.2 0.4zm0.5 2.5q-0.1 0.2 0.1 0.3l1.3 1.1c0.1 0.1 0.2 0.1 0.2 0.1 0.1 0 0.1-0.1 0.2-0.1q0.1-0.2 0-0.3l-1.4-1.1c-0.1-0.1-0.3-0.1-0.4 0zm1.9-1.1c0.1 0 0.1-0.2 0.1-0.3l-0.7-1.6c-0.1-0.1-0.2-0.2-0.4-0.1-0.1 0-0.1 0.2-0.1 0.3l0.7 1.6c0.1 0.1 0.1 0.2 0.3 0.2 0 0 0.1-0.1 0.1-0.1zm0.1 1.3q0 0.1 0.2 0.1c0 0 0.1 0 0.1 0l1.4-1.1c0.1-0.1 0.1-0.3 0.1-0.4-0.1-0.1-0.3-0.1-0.4 0l-1.3 1.1c-0.2 0.1-0.2 0.2-0.1 0.3zm1.5 1.9q0.1 0 0 0 0.2 0 0.3-0.2l0.4-1.7c0-0.1 0-0.2-0.2-0.3-0.1 0-0.2 0.1-0.2 0.2l-0.5 1.7c0 0.1 0.1 0.3 0.2 0.3zm0.9-6.5l0.3-2.4c0-0.1-0.1-0.2-0.2-0.2-0.2 0-0.3 0.1-0.3 0.2l-0.2 2.4c0 0.1 0 0.2 0.2 0.2q0 0 0 0c0.1 0.1 0.2-0.1 0.2-0.2zm-0.2-4.4q-0.2-0.1-0.3 0.1l-1 1.4q-0.1 0.2 0.1 0.4 0 0 0.1 0 0.1 0 0.2-0.1l1-1.5c0.1-0.1 0-0.2-0.1-0.3zm-0.5-1.4l-0.9-1.5c-0.1-0.1-0.2-0.2-0.3-0.1q-0.2 0.2-0.1 0.4l0.9 1.5q0 0.1 0.2 0.1 0 0 0.1 0c0.1-0.1 0.2-0.2 0.1-0.4zm0-3q0.1 0 0.2-0.1l0.9-1.7q0.1-0.2-0.1-0.3-0.2-0.1-0.3 0.1l-0.9 1.6q-0.2 0.2 0 0.3c0.1 0 0.1 0.1 0.2 0.1zm1.6-2.7q0.1 0 0.1 0 0.2 0 0.3-0.1 0.1-0.2-0.1-0.3l-1.2-0.7-0.4-0.2q-0.2-0.1-0.3 0.1 0 0 0 0.1 0 0.1 0.1 0.2zm0.4-4.2l-0.4-2.1c0-0.1-0.1-0.2-0.3-0.2-0.1 0-0.2 0.2-0.2 0.3l0.4 2.1q0.1 0.2 0.3 0.2c0.2 0 0.2-0.2 0.2-0.3zm1.1-1.8c0 0.1 0.1 0.1 0.1 0.1 0.1 0 0.2 0 0.2-0.1 0.1 0 0.1-0.2 0-0.3l-1.2-1.3c-0.1-0.1-0.3-0.1-0.4 0-0.1 0.1-0.1 0.3 0 0.4zm0.1-4.1c-0.1-0.1-0.3 0-0.3 0.1l-0.8 1.6c0 0.1 0 0.3 0.2 0.3 0 0 0.1 0.1 0.1 0.1 0.1 0 0.2-0.1 0.2-0.2l0.7-1.6c0.1-0.1 0-0.3-0.1-0.3zm-1-2.4c-0.1-0.1-0.3 0-0.3 0.1l-0.7 1.6c0 0.1 0 0.3 0.1 0.3 0.1 0 0.1 0.1 0.1 0.1q0.1 0 0.3-0.2l0.7-1.6c0-0.1 0-0.3-0.2-0.3zm-1.1 2.5c-0.1-0.1-0.2-0.2-0.3-0.2-0.1 0.1-0.2 0.2-0.2 0.3l0.3 1.8q0.1 0.1 0.3 0.2c0.1-0.1 0.2-0.2 0.2-0.3zm-0.2-4.7c0-0.2 0-0.3-0.2-0.3-0.1 0-0.2 0.1-0.2 0.2l-0.3 2.4c0 0.1 0.1 0.3 0.2 0.3q0 0 0.1 0c0.1 0 0.2-0.1 0.2-0.2zm-0.4-2.1c-0.1-0.1-0.2-0.1-0.3 0.1l-1 1.4q-0.1 0.2 0.1 0.3 0 0.1 0.1 0.1 0.1 0 0.2-0.1l1-1.5c0.1-0.1 0-0.3-0.1-0.3zm-2 5.4l1.4 1.1c0 0 0.1 0 0.2 0 0.1 0 0.1 0 0.2-0.1q0.1-0.2-0.1-0.3l-1.3-1.1q-0.2-0.1-0.4 0c-0.1 0.1-0.1 0.3 0 0.4zm-0.2 3.3c-0.1 0.1-0.1 0.3 0 0.3q0.1 0.1 0.2 0.1c0 0 0.1 0 0.2 0l1.3-1.1c0.2-0.1 0.2-0.3 0.1-0.4-0.1-0.1-0.3-0.1-0.4 0zm-0.1 2.5c0 0.1 0.1 0.3 0.2 0.3l1.6 0.7c0.1 0 0.1 0 0.1 0q0.2 0 0.3-0.2c0-0.1-0.1-0.3-0.2-0.3l-1.7-0.7q-0.2 0-0.3 0.2zm-1.6 1.3c-0.1 0.1-0.2 0.2-0.1 0.4q0 0.1 0.2 0.1c0.1 0 0.1 0 0.1 0l1.7-0.5c0.1 0 0.2-0.1 0.2-0.3q-0.1-0.2-0.4-0.2zm0.1-0.8l-0.3-1.8c-0.1-0.1-0.2-0.2-0.3-0.2-0.1 0.1-0.2 0.2-0.2 0.3l0.3 1.8q0.1 0.1 0.3 0.2c0.2-0.1 0.3-0.2 0.2-0.3zm-0.8 5q-0.2 0.2 0 0.4l1.4 1.1c0 0 0.1 0 0.1 0 0.1 0 0.1 0 0.2 0q0.2-0.2 0-0.4l-1.4-1.1c-0.1 0-0.3 0-0.3 0zm-0.2-2.4c-0.1 0-0.3 0.1-0.3 0.2l-0.3 1.1-0.4 1.1c0 0.2 0 0.3 0.2 0.4 0 0 0 0 0 0 0.2 0 0.3-0.1 0.3-0.2l0.4-1.3 0.3-1c0-0.1 0-0.2-0.2-0.3zm-1.9 5.1q-0.1 0.2 0.1 0.4 0 0 0.1 0 0.1 0 0.2-0.1l0.9-1.5q0.1-0.2-0.1-0.4c-0.1-0.1-0.3 0-0.3 0.1zm0.3-1.8c-0.1-0.1-0.3-0.1-0.3-0.1l-1.8 1.3c-0.1 0.1-0.1 0.2-0.1 0.3q0.1 0.1 0.2 0.1 0.1 0 0.1 0l1.8-1.2q0.2-0.2 0.1-0.4zm-2.5 14.3l0.6 1.6c0 0.1 0.1 0.2 0.2 0.2 0.1 0 0.1 0 0.1 0 0.1 0 0.2-0.2 0.2-0.3l-0.6-1.7c-0.1-0.1-0.2-0.2-0.4-0.2-0.1 0.1-0.2 0.3-0.1 0.4zm1.2-3.1l-0.1-2c0-0.1-0.1-0.3-0.3-0.3-0.1 0-0.2 0.2-0.2 0.3l0.1 2c0 0.1 0.1 0.2 0.2 0.2 0.2 0 0.3-0.1 0.3-0.2zm0.5-5.5c0.1-0.1 0-0.3-0.1-0.3-0.1 0-0.3 0-0.3 0.1l-0.8 1.9c0 0.1 0 0.3 0.1 0.3 0.1 0 0.1 0.1 0.1 0.1 0.1 0 0.2-0.1 0.3-0.2zm-0.5 2.6l0.7 1.4q0.1 0.1 0.2 0.1 0.1 0 0.1-0.1 0.2-0.1 0.1-0.3l-0.7-1.3q-0.2-0.2-0.4-0.1c-0.1 0-0.1 0.2 0 0.3zm0.2 4.5q0 0 0.1 0 0.1 0 0.2-0.1l0.9-1.6c0.1-0.1 0-0.2-0.1-0.3-0.1-0.1-0.3 0-0.3 0.1l-0.9 1.5c-0.1 0.1 0 0.3 0.1 0.4zm0.2 4.1c-0.1 0.1 0 0.3 0.1 0.3 0.1 0 0.1 0 0.1 0q0.2 0 0.3-0.2l0.5-1.6c0.1-0.1 0-0.3-0.1-0.3-0.1-0.1-0.3 0-0.4 0.1zm-0.1 2.2c0 0.1 0.1 0.1 0.2 0.1 0 0 0.1 0 0.2 0l1.4-1.1c0.1-0.1 0.1-0.2 0-0.3-0.1-0.1-0.2-0.1-0.3 0l-1.4 1c-0.2 0.1-0.2 0.2-0.1 0.3zm2.3-5.7c0.1-0.1 0.1-0.3 0-0.4-0.1-0.1-0.2-0.1-0.3 0l-1.4 1.1c-0.1 0.1-0.1 0.3 0 0.4q0 0 0.2 0c0 0 0.1 0 0.1 0zm-0.3 2.4c0.1 0 0.1 0 0.2 0q0.1 0 0.2-0.1l0.8-1.5q0.2-0.2 0-0.4c-0.2 0-0.3 0-0.4 0.1l-0.8 1.6c-0.1 0.1-0.1 0.2 0 0.3zm0.9 0.4l0.3 1.8q0.1 0.2 0.3 0.2c0.2-0.1 0.2-0.2 0.2-0.3l-0.3-1.7c0-0.2-0.2-0.3-0.3-0.3-0.1 0.1-0.2 0.2-0.2 0.3zm4.1 2.2c0 0 0 0 0 0q0.2 0 0.3-0.2c0-0.1-0.1-0.3-0.2-0.3l-1.6-0.6c-0.2-0.1-0.3 0-0.4 0.1 0 0.2 0.1 0.3 0.2 0.4zm-0.7 1.3l1.3 1.1c0.1 0 0.1 0 0.2 0q0.1 0 0.2-0.1 0.1-0.2 0-0.3l-1.4-1.1q-0.2-0.2-0.3 0c-0.2 0.1-0.2 0.3 0 0.4zm1.9-4.7h0.1c0.1-0.1 0.2-0.2 0.2-0.3l-0.3-1.7c-0.1-0.2-0.2-0.2-0.3-0.2-0.2 0-0.2 0.1-0.2 0.2l0.3 1.8c0 0.1 0.1 0.2 0.2 0.2zm1.3-12.2c0.1 0 0.2-0.2 0.2-0.3l-0.1-2.1c0-0.1-0.1-0.2-0.2-0.2-0.2 0-0.3 0.1-0.3 0.2l0.1 2.1c0 0.1 0.2 0.3 0.3 0.3zm0.9-6.7c0.1-0.2 0-0.3-0.1-0.4-0.1 0-0.3 0-0.3 0.2l-0.8 1.6c0 0.1 0 0.3 0.2 0.3 0 0 0 0 0.1 0q0.1 0.1 0.2-0.1zm1.2-2.5c0.1 0 0.1-0.2 0-0.3 0-0.2-0.2-0.2-0.3-0.1l-1.4 1.1c-0.1 0.1-0.1 0.3 0 0.4q0 0.1 0.2 0.1c0 0 0.1 0 0.1 0zm0.2-1.9l-0.3-1.7c-0.1-0.1-0.2-0.2-0.3-0.2-0.1 0-0.3 0.2-0.2 0.3l0.3 1.7q0 0.2 0.2 0.2c0.2 0 0.3-0.1 0.3-0.3zm0.2-4.5c0 0 0 0 0 0q0.2 0 0.3-0.2c0-0.1-0.1-0.2-0.3-0.3l-1.7-0.2c-0.2 0-0.3 0.1-0.3 0.2 0 0.2 0.1 0.3 0.2 0.3zm-0.2-2.4c0-0.1-0.1-0.2-0.3-0.2l-2.1 0.6c-0.1 0-0.2 0.1-0.2 0.3q0.1 0.2 0.3 0.2 0 0 0 0l2.2-0.6c0.1 0 0.2-0.1 0.1-0.3zm-1.1-2.2c-0.1-0.1-0.3-0.1-0.4 0l-1.6 1.4c-0.1 0.1-0.1 0.3 0 0.4 0 0 0.1 0.1 0.1 0.1 0.1 0 0.2-0.1 0.2-0.1l1.6-1.4c0.1-0.1 0.1-0.3 0.1-0.4zm-2-0.5c0 0.1 0.1 0.3 0.3 0.3 0.1 0 0.2-0.2 0.2-0.3v-1.8c0-0.1-0.1-0.2-0.3-0.2-0.1 0-0.2 0.1-0.2 0.2zm2.7 0.5q0.1 0 0.1 0 0.2 0 0.2-0.1c0.1-0.1 0.1-0.3 0-0.3l-1.6-0.9c-0.1-0.1-0.3 0-0.3 0.1-0.1 0.1 0 0.3 0.1 0.3zm-1.5-7.3q0.1 0.1 0.2 0.1c0.1 0 0.2 0 0.2 0l1.4-1.2c0 0 0 0 0 0q0.1-0.2 0-0.3c-0.1-0.1-0.2-0.1-0.3 0l-0.4 0.3-1 0.8c-0.1 0.1-0.2 0.2-0.1 0.3zm0.9 4.6l0.6-1.7c0.1-0.1 0-0.3-0.1-0.3-0.2-0.1-0.3 0-0.4 0.1l-0.6 1.7c0 0.1 0.1 0.3 0.2 0.3 0 0 0 0 0.1 0q0.2 0 0.2-0.1zm1.5-3.5q0.2-0.2 0.1-0.3-0.1-0.2-0.3-0.1l-1.5 0.9c-0.1 0.1-0.2 0.2-0.1 0.4q0.1 0.1 0.2 0.1 0.1 0 0.1-0.1zm-0.3-3.3l-0.7-1.6c0-0.1-0.2-0.1-0.3-0.1-0.1 0-0.2 0.2-0.1 0.3l0.7 1.6c0 0.1 0.1 0.2 0.2 0.2q0.1 0 0.1 0c0.1-0.1 0.2-0.2 0.1-0.4zm-0.4-3.6c0-0.1-0.2-0.1-0.3 0l-1.4 1.1c-0.1 0.1-0.1 0.3 0 0.4q0 0.1 0.2 0.1c0 0 0.1 0 0.1-0.1l1.4-1.1c0.1-0.1 0.1-0.3 0-0.4zm-2.4 4.2c0 0.1 0 0.3 0.2 0.3 0 0 0 0 0.1 0q0.1 0 0.2-0.1l0.8-1.6c0-0.2 0-0.3-0.1-0.4-0.2 0-0.3 0-0.4 0.2zm-0.1 2.9l0.1 2.1c0 0.2 0.1 0.3 0.3 0.3 0.1 0 0.2-0.1 0.2-0.3l-0.1-2.1c0-0.1-0.1-0.2-0.3-0.2-0.1-0.1-0.2 0.1-0.2 0.2zm-0.1 2.5h-1.8c-0.1 0-0.2 0-0.2 0.2q0 0.3 0.2 0.3h1.8c0.1 0 0.3-0.1 0.3-0.2 0-0.1-0.2-0.3-0.3-0.3zm-1-3.2q-0.2-0.1-0.3 0.1l-0.9 1.6q-0.1 0.2 0.1 0.3 0 0.1 0.1 0.1 0.1 0 0.2-0.1l0.9-1.6c0.1-0.2 0.1-0.3-0.1-0.4zm-1.9 3.7q-0.1-0.2-0.3-0.1-0.2 0.1-0.1 0.3l0.9 1.5q0.1 0.2 0.2 0.2 0 0 0.1-0.1 0.2-0.1 0.1-0.3zm-1.8 1.6c-0.1 0-0.3 0-0.3 0.2-0.1 0.1 0 0.3 0.1 0.3l1.6 0.8c0 0 0.1 0 0.1 0q0.1 0 0.2-0.1c0.1-0.1 0-0.3-0.1-0.3zm-0.2 7.2l0.7 1.6c0.1 0 0.1 0.1 0.3 0.1q0 0 0.1 0c0.1-0.1 0.1-0.2 0.1-0.3l-0.7-1.7c-0.1-0.1-0.2-0.1-0.4-0.1-0.1 0.1-0.2 0.2-0.1 0.4zm-0.4 2.8q-0.2-0.2-0.4 0-0.1 0.2 0.1 0.3l1.3 1.1c0.1 0.1 0.2 0.1 0.2 0.1 0.1 0 0.1-0.1 0.2-0.1q0.1-0.2 0-0.3zm-0.1-4.7c-0.2 0-0.3 0-0.4 0.2l-0.6 1.7c0 0.1 0 0.3 0.1 0.3 0.1 0 0.1 0 0.1 0 0.1 0 0.2 0 0.3-0.2l0.6-1.6c0-0.1 0-0.3-0.1-0.4zm-1.7 5.1q-0.1 0.2 0.1 0.4 0.1 0 0.1 0 0.2 0 0.3-0.1l0.8-1.6q0.1-0.2-0.1-0.3c-0.1-0.1-0.3 0-0.3 0.1zm-1.3 5.1q-0.2 0.1-0.1 0.3 0.1 0.1 0.2 0.1 0.1 0 0.2 0l1.5-1c0.1 0 0.1-0.2 0-0.3 0-0.1-0.2-0.2-0.3-0.1zm-0.7 1.3l-0.5-0.7c-0.1-0.1-0.2-0.1-0.3 0-0.1 0.1-0.1 0.3-0.1 0.3l0.3 0.4 1 1.4q0.1 0.1 0.2 0.1 0 0 0.1-0.1c0.1 0 0.1-0.2 0.1-0.3zm-1 0.5c-0.1 0-0.2 0.1-0.3 0.2l-0.2 1.8c0 0.1 0.1 0.2 0.3 0.3q-0.1 0 0 0c0.1 0 0.2-0.1 0.2-0.2l0.2-1.8c0-0.1-0.1-0.2-0.2-0.3zm-1.5 2.9c-0.1-0.1-0.2-0.1-0.3 0-0.1 0-0.1 0.2 0 0.3l1.2 1.3c0.1 0 0.1 0.1 0.2 0.1 0 0 0.1-0.1 0.2-0.1 0-0.1 0-0.3 0-0.4zm0.4-3.1v-0.2l-0.3-1.5c0-0.2-0.1-0.3-0.3-0.2-0.1 0-0.2 0.1-0.2 0.3l0.3 1.4v0.3q0.1 0.2 0.3 0.2c0.1 0 0.2-0.2 0.2-0.3zm-1.7 0.5c-0.1-0.1-0.3 0-0.3 0-0.1 0.2-0.1 0.3 0.1 0.4l1.5 1q0.1 0.1 0.1 0.1 0.2 0 0.2-0.1 0.1-0.2-0.1-0.4zm-1.6 2.8c-0.1-0.2-0.3-0.2-0.3-0.1l-1.5 1c-0.1 0.1-0.1 0.2-0.1 0.3q0.1 0.1 0.2 0.1 0.1 0 0.2 0l1.4-1c0.1-0.1 0.2-0.2 0.1-0.3zm-0.6-4.5c-0.1 0-0.3 0-0.3 0.2l-0.2 0.8-0.2 0.9c0 0.2 0.1 0.3 0.2 0.3h0.1q0.1 0 0.2-0.2l0.3-1 0.1-0.7q0-0.2-0.2-0.3zm-1.7 4.3q-0.1 0.1 0 0.3c0.1 0.1 0.1 0.1 0.2 0.1q0.1 0 0.2-0.1l1.1-1.3q0.1-0.1 0-0.3c-0.1-0.1-0.3-0.1-0.4 0zm-1.7 2.4q-0.2 0-0.2 0.2-0.1 0 0 0.2c0 0 0 0 0 0.1q0.1 0.1 0.2 0.1 0.1 0 0 0l1.8-0.4c0.1-0.1 0.2-0.2 0.1-0.3 0-0.1-0.1-0.2-0.2-0.2zm1.1-9.1q0.1-0.2 0-0.4l-1.3-1-0.1-0.1q-0.2-0.1-0.3 0c-0.1 0.2-0.1 0.3 0 0.4l0.4 0.3 1 0.8c0 0 0.1 0 0.1 0 0.1 0 0.2 0 0.2 0zm-0.2 3.4l-0.2-1c0-0.1-0.1-0.2-0.2-0.2-0.2 0.1-0.3 0.2-0.3 0.3l0.2 0.9 0.2 0.8q0 0.2 0.2 0.3h0.1c0.1-0.1 0.2-0.2 0.2-0.3zm-2.1-1.6c-0.1 0.1-0.1 0.3 0 0.4q0.1 0.1 0.2 0.1c0.1 0 0.1 0 0.2-0.1l0.6-0.5 0.7-0.6c0.2-0.1 0.2-0.3 0.1-0.4-0.1-0.1-0.3-0.1-0.3 0l-0.5 0.3zm-0.1 1.5l-0.6 1.1q-0.1 0.2 0.1 0.3 0 0.1 0.1 0 0.1 0 0.2-0.1l0.8-1.3 0.1-0.2q0.1-0.2-0.1-0.3c-0.1-0.1-0.3-0.1-0.3 0zm-0.9 3.4c-0.1 0-0.2 0.2-0.1 0.3l0.8 1.6q0.1 0.1 0.2 0.1 0.1 0 0.1 0c0.2-0.1 0.2-0.2 0.2-0.4l-0.9-1.5c-0.1-0.1-0.2-0.2-0.3-0.1zm-0.9 2.8l0.7 1.6c0 0.1 0.1 0.1 0.2 0.1q0.1 0 0.1 0c0.1 0 0.2-0.2 0.1-0.3l-0.7-1.6c0-0.2-0.2-0.2-0.3-0.2-0.1 0.1-0.2 0.2-0.1 0.4zm0.1-2.1c0-0.1-0.1-0.3-0.2-0.3-0.1-0.1-0.3 0-0.3 0.1l-0.6 1.7c0 0.1 0 0.3 0.2 0.3 0 0 0 0 0 0q0.2 0 0.3-0.2zm0.9-2.1q-0.1-0.2-0.3-0.1l-1.5 0.9q-0.2 0.2-0.1 0.4 0.1 0.1 0.2 0.1 0.1 0 0.2-0.1l1.5-0.9c0-0.1 0.1-0.2 0-0.3zm-0.7-2.2c0-0.1-0.2-0.1-0.3 0l-0.3 0.3-1 0.8c-0.1 0.1-0.1 0.3-0.1 0.4q0.1 0 0.2 0c0.1 0 0.2 0 0.2 0l1.4-1.1c0-0.1 0-0.1 0.1-0.1-0.1-0.1-0.1-0.2-0.2-0.3zm-1.9 7.6c-0.1 0.1 0 0.3 0.1 0.3l1.5 0.9q0.1 0 0.1 0 0.2 0 0.2-0.1c0.1-0.1 0.1-0.3 0-0.3l-1.6-0.9c-0.1-0.1-0.3 0-0.3 0.1zm1.2 2.2c0 0.1 0.1 0.2 0.3 0.2l1.8 0.1q-0.1 0 0 0c0.1 0 0.2-0.1 0.2-0.2 0-0.1 0-0.3-0.2-0.3l-1.8-0.1c-0.1 0-0.3 0.1-0.3 0.3zm1.4 1.5l1.3 1.2c0.1 0 0.1 0.1 0.2 0.1q0.1 0 0.2-0.1c0-0.1 0-0.3 0-0.4l-1.4-1.2c-0.1-0.1-0.2-0.1-0.3 0-0.1 0.1-0.1 0.3 0 0.4zm-0.1 6.6c-0.2 0-0.2 0.2-0.1 0.3q0.1 0.1 0.2 0.1c0.1 0 0.2 0 0.2-0.1l1.4-1.1c0.1-0.1 0.1-0.2 0-0.3-0.1-0.1-0.2-0.1-0.3-0.1zm1.1 0.6q0.1 0.2 0.3 0.2l0.6-0.1 1.1-0.3c0.1 0 0.2-0.1 0.2-0.2 0-0.2-0.1-0.2-0.3-0.2l-1 0.2-0.7 0.1c-0.1 0.1-0.2 0.2-0.2 0.3zm0 4.1c-0.2 0.1-0.2 0.3-0.1 0.4q0.1 0.1 0.2 0.1c0.1 0 0.1 0 0.2 0l0.6-0.6 0.7-0.6c0.2-0.1 0.2-0.2 0.1-0.4-0.1-0.1-0.3-0.1-0.3 0l-0.5 0.3zm1.1 3q0 0-0.1 0c-0.1 0-0.1 0.1-0.2 0.2l-0.6 1.6c0 0.1 0 0.3 0.1 0.3 0.1 0 0.1 0 0.1 0 0.1 0 0.2 0 0.3-0.1l0.3-0.9 0.3-0.8c0-0.1-0.1-0.3-0.2-0.3zm-1.2-1.5l-0.6 1.1q-0.1 0.2 0.1 0.3 0 0.1 0.1 0.1 0.1 0 0.2-0.2l0.8-1.3 0.1-0.2q0.1-0.2-0.1-0.3c-0.1-0.1-0.2 0-0.3 0.1zm-0.9 3.3c-0.1 0.1-0.2 0.2-0.1 0.4l0.8 1.5q0.1 0.2 0.2 0.2 0.1 0 0.1-0.1c0.2 0 0.2-0.2 0.2-0.3l-0.9-1.6c-0.1-0.1-0.2-0.1-0.3-0.1zm-0.9 2.8l0.7 1.6c0 0.1 0.1 0.2 0.2 0.2q0.1 0 0.1 0c0.1-0.1 0.2-0.2 0.1-0.3l-0.7-1.7c0-0.1-0.2-0.1-0.3-0.1-0.1 0-0.2 0.2-0.1 0.3zm0.1-2.1c0-0.1-0.1-0.2-0.2-0.3-0.1 0-0.3 0-0.3 0.2l-0.6 1.6c0 0.2 0 0.3 0.2 0.4 0 0 0 0 0.1 0q0.1 0 0.2-0.2zm0.9-2.2q-0.1-0.2-0.3-0.1l-1.5 1q-0.2 0.1-0.1 0.3 0.1 0.1 0.3 0.1 0 0 0.1 0l1.5-1c0 0 0.1-0.2 0-0.3zm-0.7-2.1c0-0.1-0.2-0.1-0.3 0l-0.3 0.2-1 0.9c-0.1 0.1-0.1 0.2 0 0.3q0 0.1 0.2 0.1c0 0 0.1 0 0.1-0.1l1.4-1.1c0 0 0 0 0.1-0.1-0.1 0-0.1-0.2-0.2-0.2zm-1.9 7.6c-0.1 0.1 0 0.2 0.1 0.3l1.5 0.9c0.1 0 0.1 0 0.1 0q0.2 0 0.2-0.1c0.1-0.1 0.1-0.3 0-0.4l-1.6-0.8c-0.1-0.1-0.3-0.1-0.3 0.1zm1.2 2.1c0 0.1 0.1 0.3 0.3 0.3l1.8 0.1q0 0 0 0c0.1 0 0.3-0.1 0.3-0.2 0-0.2-0.1-0.3-0.3-0.3l-1.8-0.1c-0.1 0-0.3 0.1-0.3 0.2zm3.3-1.9l0.6 0.1q0 0 0 0c0.2 0 0.3-0.1 0.3-0.2 0-0.1-0.1-0.3-0.3-0.3h-0.6l-1.2-0.1c-0.1 0-0.2 0.1-0.2 0.2 0 0.1 0.1 0.3 0.2 0.3zm2-1.9c0.2 0 0.2-0.1 0.2-0.2 0-0.2-0.2-0.2-0.3-0.2l-1.7 0.4q-0.1 0-0.2 0.1 0 0.1 0 0.2c0 0.1 0 0.1 0 0.1q0.1 0.1 0.2 0.1 0.1 0 0.1 0zm0.2-2.1l1.2-1.3q0.1-0.2 0-0.4c-0.1-0.1-0.3 0-0.4 0l-1.1 1.3q-0.1 0.2 0 0.4c0.1 0 0.1 0 0.2 0q0 0.1 0.1 0zm0.1 1.1q0.1 0.1 0.2 0.1 0.1 0 0.1 0l1.5-1c0.1-0.1 0.1-0.2 0-0.3 0-0.2-0.2-0.2-0.3-0.1l-1.4 1c-0.2 0.1-0.2 0.2-0.1 0.3zm2-8.6l1-1.4c0.1-0.2 0.1-0.3 0-0.4-0.1 0-0.3 0-0.3 0.1l-1.1 1.4c0 0.2 0 0.3 0.1 0.4q0 0 0.1 0 0.1 0 0.2-0.1zm0.6 0.6c0-0.1-0.1-0.2-0.2-0.2-0.1 0-0.3 0.2-0.3 0.3l0.2 1.8c0 0.1 0.1 0.2 0.2 0.2q0 0 0 0c0.2 0 0.3-0.2 0.3-0.3zm-0.6 4.4l0.5 1.6q0.1 0.2 0.3 0.2c0 0 0 0 0 0 0.2 0 0.2-0.2 0.2-0.3l-0.5-1.7c0-0.1-0.2-0.2-0.3-0.2-0.1 0.1-0.2 0.2-0.2 0.4zm1.1-1.2l0.9-0.6c0.1-0.1 0.1-0.2 0-0.3-0.1-0.1-0.3-0.1-0.3-0.1l-1.4 1c0 0 0 0.1 0 0.1-0.1 0.1-0.1 0.2 0 0.3q0 0.1 0.2 0.1 0 0 0.1-0.1zm0.1 1.2l1.5 1.1q0.1 0 0.1 0 0.2 0 0.2-0.1 0.1-0.2 0-0.3l-1.6-1.1c-0.1-0.1-0.3 0-0.3 0 0 0.2 0 0.3 0.1 0.4zm2-0.9l-0.1-0.3-0.2-1.4c-0.1-0.2-0.2-0.2-0.3-0.2-0.1 0-0.3 0.1-0.2 0.2l0.2 1.4 0.1 0.4q0 0.2 0.2 0.2h0.1c0.1 0 0.2-0.2 0.2-0.3zm0.9-5.4c0.1 0 0.2-0.2 0.1-0.3-0.1-0.1-0.2-0.2-0.3-0.1l-1.7 0.6c-0.1 0.1-0.2 0.2-0.1 0.4 0 0 0.1 0.1 0.2 0.1q0.1 0 0.1 0zm-0.4 2.1l0.8 1.8q0.1 0.1 0.2 0.1 0.1 0 0.2 0c0.1 0 0.1-0.2 0.1-0.3l-0.8-1.8c-0.1-0.1-0.3-0.2-0.4-0.1q-0.2 0.2-0.1 0.3zm0.1 5.5c0 0.2 0.1 0.3 0.2 0.3q0 0 0 0c0.2 0 0.3-0.1 0.3-0.2l0.1-1.8c0-0.1 0-0.2-0.2-0.3-0.1 0-0.2 0.1-0.3 0.3zm0.9-2.5l1 1.4q0 0.1 0.2 0.1 0 0.1 0.1 0c0.1-0.1 0.1-0.2 0-0.3l-0.7-1.2-0.5-0.6c-0.1-0.1-0.3-0.1-0.3 0-0.2 0-0.2 0.2-0.1 0.3zm1.5-0.8q0 0 0.1 0l1.5-1q0.2-0.1 0.1-0.3-0.2-0.2-0.4-0.1l-1.4 0.9q-0.2 0.2-0.1 0.4 0 0.1 0.2 0.1zm1.5 5.9c0 0.1 0.1 0.3 0.2 0.3q0.2 0 0.3-0.2l0.2-1.4c0-0.1-0.1-0.3-0.2-0.3-0.1 0-0.3 0.1-0.3 0.2zm1.9-2.4c0 0 0.1 0 0.2 0 0.1 0 0.1 0 0.2-0.1q0.1-0.2-0.1-0.3l-1.3-1.1q-0.2-0.2-0.4 0-0.1 0.2 0.1 0.4zm-0.1 1.1l1.6 0.7q0 0 0.1 0 0.1 0 0.2-0.2c0-0.1 0-0.3-0.1-0.3l-1.6-0.7c-0.2-0.1-0.3 0-0.4 0.1q-0.1 0.2 0.2 0.4zm2.2-3.1q0 0.1 0.2 0.1 0 0 0.1 0 0.2-0.1 0.1-0.3l-0.3-0.5-0.5-0.9q-0.2-0.2-0.4-0.1-0.1 0.1 0 0.3l0.3 0.7zm0.5 3c0.1 0 0.1 0 0.2 0q0.1 0 0.2-0.1l0.9-1.6q0.1-0.2-0.1-0.3-0.2-0.2-0.3 0l-1 1.6q-0.1 0.2 0.1 0.4zm1.8-2.7q0.1 0.1 0.1 0.1 0.2 0 0.2-0.1 0.1-0.2 0-0.4l-1.2-0.6-0.4-0.2q-0.2-0.2-0.3 0-0.1 0.1 0 0.2 0 0.1 0.1 0.2zm0.4-4.2l-0.4-2.1c0-0.1-0.1-0.2-0.3-0.2-0.1 0-0.2 0.1-0.2 0.3l0.4 2.1q0.1 0.2 0.3 0.2c0.1 0 0.2-0.2 0.2-0.3zm-0.4-6.4l0.7-1.6c0.1-0.1 0-0.3-0.1-0.3-0.1 0-0.3 0-0.3 0.1l-0.7 1.6c-0.1 0.2 0 0.3 0.1 0.4 0 0 0.1 0 0.1 0q0.2 0 0.2-0.2zm1.9-5.5c0.1 0 0.1-0.2 0-0.3-0.1-0.2-0.2-0.2-0.4-0.1l-1.5 1.4c-0.1 0.1-0.1 0.3-0.1 0.4 0.1 0 0.2 0.1 0.2 0.1 0 0 0.1-0.1 0.2-0.1zm0.8-0.4q0.1 0.1 0.1 0.1 0.1 0 0.2-0.1c0.1-0.2 0.1-0.3-0.1-0.4l-1.5-0.8c-0.1-0.1-0.3-0.1-0.3 0-0.1 0.2-0.1 0.3 0.1 0.4zm-0.6-2.8l0.6-1.7c0-0.1 0-0.2-0.2-0.3-0.1 0-0.3 0.1-0.3 0.2l-0.6 1.6c0 0.2 0.1 0.3 0.2 0.4 0 0 0 0 0.1 0q0.2 0 0.2-0.2zm0.9-5.6c0-0.1 0-0.1 0-0.1q0.1-0.1 0-0.2c-0.1-0.2-0.3-0.2-0.3-0.1l-0.4 0.3-1 0.8c-0.1 0.1-0.1 0.3 0 0.4q0 0 0.2 0c0 0 0.1 0 0.1 0zm0.1-0.8q0.1 0 0.1 0c0.2-0.1 0.2-0.2 0.2-0.4l-0.7-1.6c-0.1-0.1-0.3-0.1-0.4-0.1-0.1 0-0.1 0.2-0.1 0.3l0.7 1.6c0.1 0.1 0.2 0.2 0.2 0.2zm0.3-7.3c0 0 0 0 0.1 0 0.1 0 0.2-0.2 0.1-0.3l-0.7-1.7c0-0.1-0.2-0.2-0.3-0.1-0.1 0-0.2 0.2-0.1 0.3l0.6 1.7c0.1 0 0.2 0.1 0.3 0.1zm0.9-5.9q0.1 0 0 0 0.3 0 0.3-0.3c0-0.1 0-0.2-0.2-0.2l-1.8-0.1c-0.1 0-0.2 0.1-0.2 0.2q0 0.3 0.2 0.3zm-0.4-2.4l-0.7-1.6c-0.1-0.1-0.3-0.2-0.4-0.1-0.1 0-0.1 0.2-0.1 0.3l0.7 1.6c0 0.1 0.1 0.2 0.3 0.2 0 0 0 0 0-0.1 0.2 0 0.2-0.2 0.2-0.3zm0.4-2.3q0.1 0.2 0.2 0.2 0.1 0 0.1-0.1c0.2 0 0.2-0.2 0.2-0.3l-0.9-1.6c0-0.1-0.2-0.1-0.3-0.1-0.1 0-0.2 0.2-0.1 0.3zm0.8-5.2l0.1-0.3q0.1-0.2-0.1-0.3c-0.1-0.1-0.2 0-0.3 0.1l-0.3 0.5-0.6 1c-0.1 0.1-0.1 0.3 0.1 0.4q0 0 0.1 0 0.1 0 0.2-0.1zm0.5-1.7l0.7-0.6c0.1-0.1 0.1-0.3 0.1-0.4-0.1-0.1-0.3-0.1-0.4-0.1l-0.4 0.4-1 0.8c-0.1 0-0.1 0.2 0 0.3q0.1 0.1 0.2 0.1c0 0 0.1 0 0.2 0zm-1.1-3.1q-0.2-0.1-0.3 0.1l-0.9 1.5c-0.1 0.1-0.1 0.2 0.1 0.3q0 0.1 0.1 0.1 0.1 0 0.2-0.2l0.9-1.5c0.1-0.1 0-0.2-0.1-0.3zm-2-5.1l0.6 1.7c0.1 0.1 0.1 0.2 0.3 0.2 0 0 0 0 0.1 0 0.1-0.1 0.2-0.2 0.1-0.4l-0.7-1.6c0-0.1-0.2-0.2-0.3-0.1-0.1 0-0.2 0.1-0.1 0.2zm-0.3 2.1l0.3 1.7q0.1 0.2 0.3 0.2c0.1 0 0.2-0.2 0.2-0.3l-0.3-1.7c0-0.1-0.2-0.3-0.3-0.2-0.1 0-0.2 0.1-0.2 0.3zm-1.6 0.8c0 0 0.1 0.1 0.1 0.1 0.1 0 0.2-0.1 0.2-0.2l0.8-1.6c0-0.1 0-0.3-0.1-0.3-0.2-0.1-0.3 0-0.4 0.1l-0.7 1.6c-0.1 0.1 0 0.3 0.1 0.3zm-0.4 0.9l1.2 1.2c0.1 0 0.2 0.1 0.2 0.1 0 0 0.1-0.1 0.2-0.1 0-0.1 0-0.3 0-0.4l-1.3-1.2c-0.1-0.1-0.2-0.1-0.4 0 0 0.1 0 0.3 0.1 0.4zm-0.7 1l0.4 2.1q0.1 0.2 0.2 0.2h0.1c0.1 0 0.2-0.2 0.2-0.3l-0.4-2.1c-0.1-0.1-0.2-0.2-0.3-0.2-0.2 0-0.3 0.2-0.2 0.3zm-0.5 5.1l-0.3-0.2q-0.2-0.2-0.4 0 0 0.1 0 0.2 0 0.1 0.1 0.2l1.5 0.9q0.1 0 0.2 0 0.1 0 0.2-0.1 0.1-0.2-0.1-0.3zm-1.2-2.5q-0.2-0.1-0.3 0-0.2 0.2 0 0.4l1.4 1.1c0 0 0.1 0 0.1 0q0.2 0 0.2-0.1 0.2-0.2 0-0.3zm0.3-2.2q0 0 0 0c0.2 0 0.2-0.1 0.3-0.1l0.4-1.7c0-0.2-0.1-0.3-0.2-0.3-0.1-0.1-0.2 0-0.3 0.1l-0.4 1.7c0 0.2 0.1 0.3 0.2 0.3zm0.2 1.3c0 0 0 0 0 0q0.2 0 0.3-0.2c0-0.1-0.1-0.3-0.2-0.3l-1.6-0.6c-0.2-0.1-0.3 0-0.4 0.1 0 0.2 0.1 0.3 0.2 0.4zm-1.4 2.8l0.3 0.6 0.4 0.7q0.1 0.1 0.2 0.1 0.1 0 0.2 0 0.2-0.1 0.1-0.3l-0.3-0.5-0.5-0.9q-0.2-0.2-0.4-0.1c0 0.1-0.1 0.2 0 0.4zm-0.3 3.6c0 0.1 0.1 0.3 0.3 0.3q-0.1 0 0 0c0.1 0 0.2-0.1 0.2-0.2l0.2-1.9c0-0.1-0.1-0.2-0.2-0.2-0.1 0-0.2 0.1-0.2 0.2zm-0.6-1.8v-1.3c0-0.2-0.1-0.3-0.3-0.3-0.1 0-0.2 0.1-0.2 0.3v1.3c0 0.2 0.1 0.3 0.2 0.3 0.2 0 0.3-0.1 0.3-0.3zm-0.6 2.5l1.6 0.8c0 0 0.1 0 0.1 0q0.1 0 0.2-0.2c0-0.1 0-0.3-0.1-0.3l-1.6-0.7c-0.2 0-0.3 0-0.4 0.1q-0.1 0.2 0.2 0.3zm-1 3.1c0 0 0.1 0 0.2-0.1l1.6-1.3c0.1-0.1 0.1-0.3 0-0.4-0.1-0.1-0.2-0.1-0.3-0.1l-1.7 1.4c-0.1 0.1-0.1 0.3 0 0.4q0.1 0.1 0.2 0.1zm-1.1 4.8c0.1 0 0.2 0 0.2 0 0.1 0 0.1 0 0.2 0l1.5-1.7c0.1-0.1 0.1-0.3 0-0.4-0.1-0.1-0.2-0.1-0.3 0l-1.6 1.7c0 0.1 0 0.3 0 0.4zm-1.4 4.5c-0.1 0.1-0.1 0.2-0.1 0.3q0.1 0.1 0.3 0.1c0 0 0.1 0 0.1 0l1.4-1.1c0.1-0.1 0.1-0.3 0-0.4-0.1-0.1-0.2-0.1-0.3 0zm-0.6-1.3q0 0.1 0.1 0 0.1 0 0.2-0.1l0.9-1.5c0.1-0.1 0-0.3-0.1-0.3-0.1-0.1-0.3-0.1-0.3 0l-0.9 1.6c-0.1 0.1 0 0.2 0.1 0.3zm-0.3 7.5l-0.8-1.8c-0.1-0.1-0.3-0.2-0.4-0.1-0.1 0-0.1 0.2-0.1 0.3l0.8 1.8q0.1 0.1 0.2 0.1 0.1 0 0.2 0c0.1-0.1 0.1-0.2 0.1-0.3zm-1.2-6l0.6 1.6c0 0.1 0.1 0.2 0.3 0.2 0 0 0 0 0 0 0.2 0 0.2-0.2 0.2-0.3l-0.6-1.7c-0.1-0.1-0.2-0.2-0.4-0.1-0.1 0-0.2 0.1-0.1 0.3zm-1.7 2.8c0.1 0.1 0.2 0.2 0.3 0.2q0.1 0 0.1 0l1.6-0.7c0.1 0 0.2-0.2 0.1-0.3 0-0.1-0.2-0.2-0.3-0.1l-1.6 0.6c-0.1 0-0.2 0.2-0.2 0.3zm-0.3 2.8q0.1 0.1 0.1 0.1 0.2 0 0.2-0.1l0.9-1.6c0.1-0.1 0.1-0.2 0-0.3-0.2-0.1-0.3 0-0.4 0.1l-0.9 1.5c-0.1 0.1 0 0.3 0.1 0.3zm-1.4 1.7c0 0 0 0.1 0 0.1-0.1 0.1-0.1 0.2 0 0.3q0 0.1 0.2 0.1 0 0 0.1 0l0.5-0.4 0.8-0.6c0.2-0.1 0.2-0.2 0.1-0.3-0.1-0.2-0.3-0.2-0.3-0.1zm-0.8-4.1c-0.1 0.2-0.1 0.3 0 0.4q0.1 0 0.1 0 0.2 0 0.2-0.1l1.1-1.5c0.1-0.1 0-0.2-0.1-0.3-0.1-0.1-0.3 0-0.3 0.1zm-1.9-0.7q0 0.1 0.2 0.1c0 0 0.1 0 0.1 0l1.8-1.5c0.1-0.1 0.1-0.3 0-0.4-0.1-0.1-0.2-0.1-0.3 0l-1.8 1.5c-0.1 0-0.1 0.2 0 0.3zm0 2.6c0 0 0 0.1 0 0.1q0.2 0 0.3-0.2l0.7-1.6c0-0.1 0-0.3-0.1-0.3-0.1-0.1-0.3 0-0.4 0.1l-0.7 1.6q0 0.2 0.2 0.3zm-0.2 1.6q0.1 0.1 0.2 0.1c0.1 0 0.2 0 0.2-0.1l1.4-1.1c0.1-0.1 0.1-0.2 0-0.3-0.1-0.1-0.2-0.1-0.3 0l-1.4 1.1c-0.1 0-0.1 0.2-0.1 0.3zm-0.3 5l-0.4-2.1c-0.1-0.2-0.2-0.3-0.3-0.3-0.2 0.1-0.2 0.2-0.2 0.3l0.4 2.2q0 0.2 0.2 0.2h0.1c0.1 0 0.2-0.1 0.2-0.3zm-2.4-10q0.1 0.2 0.3 0.2l0.5-0.2 1.2-0.2c0.1 0 0.2-0.2 0.2-0.3 0-0.1-0.2-0.2-0.3-0.2l-1.1 0.3-0.6 0.1c-0.1 0-0.2 0.1-0.2 0.3zm-1.3 2.8q0.1 0 0.1 0 0.2 0 0.2-0.1l0.9-1.5q0.1-0.2-0.1-0.4c-0.1 0-0.2 0-0.3 0.1l-0.9 1.5c-0.1 0.2 0 0.3 0.1 0.4zm-0.7 0.1c-0.1-0.1-0.3-0.1-0.4-0.1-0.1 0.1-0.1 0.2-0.1 0.3l0.7 1.7c0 0 0.1 0.1 0.2 0.1q0.1 0 0.1 0c0.2-0.1 0.2-0.2 0.2-0.3zm-1.5-0.6q0.1 0.1 0.2 0.1c0.1 0 0.1 0 0.2 0l1.3-1.2c0.2 0 0.2-0.2 0.1-0.3-0.1-0.2-0.3-0.2-0.3-0.1l-1.4 1.1c-0.2 0.1-0.2 0.3-0.1 0.4zm-0.5 3c0 0 0 0.1 0.1 0.1q0.1 0 0.2-0.2l0.8-1.6c0-0.1 0-0.3-0.1-0.3-0.2-0.1-0.3 0-0.4 0.1l-0.7 1.6c-0.1 0.1-0.1 0.3 0.1 0.3zm-0.3 2.7l0.1 2.1c0 0.1 0.2 0.2 0.3 0.2 0.1 0 0.2-0.1 0.2-0.2l-0.1-2.1c0-0.1-0.1-0.3-0.2-0.3-0.2 0-0.3 0.1-0.3 0.3zm-0.9-7.5l0.4 2.1q0.1 0.2 0.3 0.2c0.1-0.1 0.2-0.2 0.2-0.3l-0.4-2.1c0-0.2-0.2-0.2-0.3-0.2-0.2 0-0.2 0.1-0.2 0.3zm-6.1 7.7c0.1-0.1 0.1-0.3 0-0.3-0.2-0.1-0.3-0.1-0.4 0l-0.9 1.6c-0.1 0.1 0 0.2 0.1 0.3q0.1 0 0.1 0 0.2 0 0.2-0.1zm-0.8 2.6c0-0.2-0.2-0.2-0.3-0.1l-1.4 1.1c-0.1 0.1-0.1 0.3 0 0.4 0 0 0.1 0.1 0.2 0.1 0.1 0 0.1 0 0.2-0.1l1.3-1.1c0.1-0.1 0.1-0.2 0-0.3zm0.5 1.7l0.8 1.5q0.1 0.2 0.2 0.2 0.1 0 0.2-0.1 0.1-0.1 0-0.3l-0.9-1.5q-0.1-0.2-0.3-0.1c-0.1 0-0.1 0.2 0 0.3zm3.7-5.7l-0.2 1.8c0 0.1 0.1 0.3 0.3 0.3q-0.1 0 0 0c0.1 0 0.2-0.1 0.2-0.2l0.2-1.8c0-0.2-0.1-0.3-0.2-0.3-0.2 0-0.3 0.1-0.3 0.2zm0.1-1.9l0.3 0.7 0.4 0.7q0.1 0.1 0.2 0.1 0.1 0 0.2 0c0.1-0.1 0.1-0.2 0.1-0.3l-0.3-0.5-0.5-0.9c-0.1-0.1-0.2-0.2-0.4-0.1 0 0.1-0.1 0.2 0 0.3zm-1.3 4c-0.1 0-0.3 0-0.3 0.1-0.1 0.2 0 0.3 0.1 0.4l1.6 0.7c0.1 0 0.1 0 0.1 0q0.1 0 0.3-0.2c0-0.1 0-0.2-0.2-0.3zm0.5-2v-1.4c0-0.1-0.1-0.3-0.3-0.3-0.1 0-0.2 0.2-0.2 0.3v1.4c0 0.1 0.1 0.2 0.2 0.2 0.2 0 0.3-0.1 0.3-0.2zm0.2-2.9l-1.2-0.4c-0.1-0.1-0.3 0-0.3 0.2-0.1 0.1 0 0.2 0.1 0.3l1.3 0.4c0 0 0 0 0 0 0.2 0 0.3-0.1 0.3-0.2q0-0.2-0.2-0.3zm-1.8 2.8c-0.1-0.1-0.2-0.1-0.3 0q-0.2 0.2 0 0.3l1.4 1.2c0 0 0.1 0 0.2 0 0 0 0.1 0 0.2-0.1 0-0.1 0-0.2-0.1-0.3zm-0.6 2.5l-0.2 1.4c0 0.1 0.1 0.3 0.2 0.3h0.1q0.2 0 0.2-0.2l0.2-1.4c0.1-0.1 0-0.3-0.2-0.3-0.1 0-0.3 0.1-0.3 0.2zm0.6 3.1c0.1 0 0.1 0 0.2 0l1.6-1.4c0.1-0.1 0.1-0.2 0-0.4 0-0.1-0.2-0.1-0.3 0l-1.6 1.3c-0.1 0.1-0.1 0.3 0 0.4 0 0.1 0 0.1 0.1 0.1zm0.9 0.7l1.6 0.7c0 0 0.1 0.1 0.1 0.1q0.2 0 0.2-0.1c0.1-0.2 0-0.3-0.1-0.4l-1.6-0.7c-0.1-0.1-0.3 0-0.3 0.1 0 0.1 0 0.2 0.1 0.3zm2.5-0.4q0.1 0.2 0.2 0.2 0.1 0 0.1-0.1 0.2-0.1 0.1-0.3l-0.9-1.5c-0.1-0.2-0.2-0.2-0.3-0.1q-0.2 0.1-0.1 0.3zm0.4-3.3q0.1 0 0.2-0.2l0.9-1.6c0.1-0.1 0.1-0.2-0.1-0.3-0.1-0.1-0.2 0-0.3 0.1l-0.9 1.6q-0.1 0.2 0.1 0.3c0 0 0.1 0.1 0.1 0.1zm1.7-2.7q0 0 0.1 0 0.1 0 0.2-0.1 0.1-0.2-0.1-0.3l-1.1-0.7-0.4-0.2c-0.1-0.1-0.3 0-0.4 0.1q0 0 0 0.1 0 0.1 0.1 0.2zm-2.1-3.6q-0.2-0.1-0.3 0.1-0.1 0.2 0 0.3l1.4 1.1c0 0 0.1 0 0.2 0 0 0 0.1 0 0.2 0 0.1-0.2 0.1-0.3-0.1-0.4zm-1.2-1.5l1.7 0.6c0 0 0 0 0.1 0q0.1 0 0.2-0.1c0.1-0.2 0-0.3-0.2-0.4l-1.6-0.6c-0.1 0-0.3 0.1-0.3 0.2-0.1 0.1 0 0.3 0.1 0.3zm-1.7 1c-0.1 0-0.2 0.2-0.1 0.3q0 0.2 0.2 0.2c0.1 0 0.1 0 0.1 0l1.7-0.5c0.1 0 0.2-0.2 0.2-0.3q-0.1-0.3-0.4-0.2zm-0.7-2.5l0.4 1.7q0 0.2 0.2 0.2c0.2 0 0.3-0.1 0.3-0.3l-0.4-1.7c0-0.1-0.1-0.2-0.3-0.2-0.1 0-0.2 0.2-0.2 0.3zm-0.5 4.4l-0.3 1.1-0.5 1.2c0 0.1 0.1 0.3 0.2 0.3 0.1 0 0.1 0 0.1 0 0.1 0 0.2 0 0.2-0.1l0.5-1.4 0.3-0.9c0-0.1-0.1-0.2-0.2-0.3-0.1-0.1-0.3 0-0.3 0.1zm-0.2-1.1l-1.5 1q-0.2 0.1-0.1 0.3 0.1 0.1 0.2 0.1 0.1 0 0.1 0l1.5-1q0.2-0.1 0.1-0.3c0-0.1-0.2-0.1-0.3-0.1zm-2.1-0.4c0 0.1 0.1 0.1 0.2 0.1 0 0 0.1 0 0.1-0.1l1.5-1c0.1-0.1 0.1-0.3 0-0.3-0.1-0.2-0.3-0.2-0.3-0.1l-1.4 1c-0.2 0.1-0.2 0.3-0.1 0.4zm-0.1 2.6l-0.5-0.6c-0.1-0.1-0.3-0.1-0.3 0-0.2 0-0.2 0.2-0.1 0.3l0.3 0.3 1 1.4q0 0.1 0.2 0.1 0 0.1 0.1 0c0.1-0.1 0.1-0.2 0-0.3zm-0.9 0.5c-0.1 0-0.3 0.1-0.3 0.2l-0.2 1.7c0 0.2 0.1 0.3 0.2 0.3q0 0 0 0c0.2 0 0.3 0 0.3-0.2l0.2-1.7c0-0.2-0.1-0.3-0.2-0.3zm-0.6-3.5l0.9 1.7q0 0.2 0.2 0.2 0 0 0.1-0.1c0.1 0 0.2-0.2 0.1-0.3l-0.8-1.8c0-0.1-0.2-0.2-0.3-0.1q-0.2 0.2-0.2 0.4zm-0.5 3l-0.2-1.5c-0.1-0.1-0.2-0.3-0.3-0.2-0.1 0-0.2 0.1-0.2 0.3l0.2 1.4 0.1 0.3c0 0.2 0.1 0.3 0.2 0.3 0.2-0.1 0.3-0.2 0.3-0.3zm-0.5 2.1q0.1 0.1 0.2 0.1 0.1 0 0.2-0.1 0.1-0.2-0.1-0.4l-1.5-1c-0.2-0.1-0.3-0.1-0.4 0q-0.1 0.2 0.1 0.3zm-0.7 3.4l-1.1 1.4q-0.2 0.2 0 0.3c0 0.1 0.1 0.1 0.2 0.1 0 0 0.1-0.1 0.2-0.1l1.1-1.4q0.2-0.2 0-0.3-0.2-0.2-0.4 0zm-0.9-5.6l0.9-0.6c0.1-0.1 0.1-0.2 0-0.3-0.1-0.1-0.2-0.1-0.3 0l-1.4 0.9v0.1c-0.1 0.1-0.1 0.2 0 0.3q0 0.1 0.2 0.1 0 0 0.1 0zm0.7-1.8q0 0 0.1 0 0.1 0 0.2-0.1l0.9-1.5c0.1-0.2 0-0.3-0.1-0.4-0.1 0-0.3 0-0.3 0.1l-0.9 1.5c-0.1 0.1-0.1 0.3 0.1 0.4zm-1.7-1.4l0.1 1.8c0 0.1 0.2 0.2 0.3 0.2 0.1 0 0.2-0.1 0.2-0.2l-0.1-1.8c0-0.1-0.2-0.3-0.3-0.3-0.1 0-0.2 0.2-0.2 0.3zm-0.1 4.3l0.5 1.7q0.1 0.1 0.3 0.1c0 0 0 0 0.1 0 0.1 0 0.2-0.1 0.1-0.3l-0.5-1.7c0-0.1-0.1-0.2-0.3-0.2-0.1 0.1-0.2 0.2-0.2 0.4zm-1.3 0.1h0.1q0.1 0 0.2-0.2l0.2-1 0.2-0.7c0.1-0.1 0-0.3-0.2-0.3-0.1 0-0.2 0-0.3 0.2l-0.1 0.8-0.3 0.9c0 0.1 0.1 0.3 0.2 0.3zm-0.8 2.4l1.1-1.3q0.1-0.2 0-0.4c-0.1-0.1-0.2 0-0.3 0l-1.1 1.3q-0.2 0.2 0 0.4c0 0 0.1 0 0.1 0 0.1 0 0.1 0 0.2 0zm0.4 1.2l1.4-1c0.2-0.1 0.2-0.2 0.1-0.3-0.1-0.2-0.2-0.2-0.3-0.1l-1.5 1c-0.1 0.1-0.1 0.2 0 0.3q0 0.1 0.2 0.1 0 0 0.1 0zm1.5 2.7l-0.9-1.5q-0.2-0.2-0.4-0.1-0.2 0.1 0 0.3l0.9 1.6q0 0.1 0.2 0.1 0 0 0.1-0.1 0.2-0.1 0.1-0.3zm0.4-2l1.4-1.1c0.1-0.1 0.1-0.3 0-0.4 0-0.1-0.2-0.1-0.3 0l-1.4 1.1c-0.1 0.1-0.1 0.3 0 0.4q0.1 0 0.2 0 0 0 0.1 0zm1.5 2.6c-0.1 0-0.3 0-0.3 0.1l-0.7 1.3c-0.1 0.1 0 0.2 0.1 0.3q0 0 0.1 0 0.1 0 0.2-0.1l0.7-1.2c0-0.2 0-0.3-0.1-0.4zm2 2.7l-1.1-1.9c-0.1-0.1-0.2-0.2-0.3-0.1q-0.2 0.1-0.1 0.3l1.1 2q0.1 0.1 0.2 0.1 0.1 0 0.1 0c0.1-0.1 0.2-0.3 0.1-0.4zm0.2-5c-0.2-0.1-0.3 0-0.4 0.1l-0.7 2c-0.1 0.2 0 0.3 0.1 0.4q0.1 0 0.1 0c0 0 0.2-0.1 0.2-0.2l0.8-2c0-0.1 0-0.3-0.1-0.3zm0.1-1.3l-1.3-1.2c-0.1-0.1-0.2-0.1-0.3 0-0.1 0.1-0.1 0.3 0 0.4l1.2 1.2c0.1 0.1 0.1 0.1 0.2 0.1q0.1 0 0.2-0.1c0-0.1 0-0.2 0-0.4zm0.1-0.9q0.1 0.1 0.2 0.1 0 0 0.1-0.1l1.8-1.2c0.1-0.1 0.1-0.3 0.1-0.3-0.1-0.1-0.3-0.2-0.4-0.1l-1.7 1.3c-0.2 0-0.2 0.1-0.1 0.3zm1.4 4.2c0.1-0.2 0-0.3-0.1-0.4-0.1 0-0.3 0-0.3 0.2l-0.8 1.9c-0.1 0.1 0 0.2 0.1 0.3 0.1 0 0.1 0 0.1 0 0.1 0 0.2 0 0.2-0.1zm0.7 3.6l-0.8-1.3q-0.1-0.2-0.3-0.1-0.2 0.2-0.1 0.4l0.7 1.3q0.1 0.1 0.2 0.1 0.1 0 0.2 0c0.1-0.1 0.1-0.2 0.1-0.4zm1-1.2l-0.4-2.1c-0.1-0.1-0.2-0.2-0.3-0.2-0.1 0.1-0.2 0.2-0.2 0.3l0.4 2.1q0.1 0.2 0.3 0.2 0.2-0.1 0.2-0.3zm2-0.7c-0.1-0.1-0.2-0.1-0.3 0l-1.6 1.7c-0.1 0.1-0.1 0.2 0 0.4 0.1 0 0.1 0 0.2 0q0.1 0 0.1 0l1.6-1.7q0.1-0.2 0-0.4zm0.3 1.7c0 0.2 0.1 0.3 0.3 0.3q-0.1 0 0 0c0.1 0 0.2-0.1 0.2-0.3l0.2-2.2c0-0.2-0.1-0.3-0.2-0.3-0.2 0-0.3 0.1-0.3 0.3zm1.9 0.2q-0.1-0.2-0.3-0.1l-1.5 1q-0.2 0.1 0 0.3 0 0.1 0.2 0.1 0 0 0.1 0l1.5-1q0.2-0.1 0-0.3zm0.3-1.5l1-1.5c0.1-0.1 0.1-0.2-0.1-0.3-0.1-0.1-0.2 0-0.3 0.1l-1 1.4q-0.1 0.2 0.1 0.4 0.1 0 0.1 0 0.2 0 0.2-0.1zm1.4 0.3c0-0.1-0.1-0.3-0.2-0.3-0.2 0-0.3 0.1-0.3 0.2l-0.3 2.4c0 0.2 0.1 0.3 0.2 0.3q0 0 0.1 0c0.1 0 0.2-0.1 0.2-0.2zm1-4.9c0.2 0 0.3-0.1 0.3-0.2 0-0.1-0.1-0.3-0.3-0.3h-1.7c-0.2 0-0.3 0-0.3 0.2q0 0.3 0.3 0.3zm0.1 0.7c0-0.1-0.1-0.2-0.3-0.2-0.1 0-0.2 0.1-0.2 0.2v1.8c0 0.1 0.2 0.3 0.3 0.3 0.1 0 0.2-0.2 0.2-0.3zm1.5 2.7c0.1-0.1 0.1-0.3 0-0.4-0.1-0.1-0.2-0.1-0.3-0.1l-1.6 1.5c-0.1 0-0.1 0.2 0 0.3 0 0.1 0.1 0.1 0.1 0.1 0.1 0 0.2 0 0.2 0zm-1.1 2.6l2.1-0.5c0.2-0.1 0.2-0.2 0.2-0.3 0-0.1-0.2-0.2-0.3-0.2l-2.1 0.6c-0.2 0-0.2 0.1-0.2 0.2q0.1 0.2 0.3 0.3-0.1-0.1 0-0.1zm0.7 1.4l1.8 0.2h0.1c0.1 0 0.2-0.1 0.2-0.2 0-0.1-0.1-0.2-0.2-0.3l-1.8-0.2c-0.1 0-0.2 0.1-0.3 0.2 0 0.2 0.1 0.3 0.2 0.3zm1.9 2.8q0.1 0 0.1 0c0.1 0 0.2-0.2 0.1-0.3l-0.7-1.7c0-0.1-0.2-0.2-0.3-0.1-0.1 0.1-0.2 0.2-0.1 0.3l0.6 1.7q0.2 0.1 0.3 0.1zm0 5.2q0.1 0.1 0.2 0.1 0.1 0 0.2-0.2l0.9-1.5q0.1-0.2-0.1-0.3c-0.1-0.1-0.3-0.1-0.3 0.1l-0.9 1.5c-0.1 0.1-0.1 0.3 0 0.3zm-1.2 0.4l0.7 1.6c0.1 0.1 0.2 0.2 0.3 0.2q0.1 0 0.1 0c0.1-0.1 0.1-0.2 0.1-0.4l-0.7-1.6c0-0.1-0.2-0.2-0.3-0.1-0.2 0-0.2 0.2-0.2 0.3zm-1.5 2.3q0.1 0 0.1 0 0.2 0 0.3-0.2l0.7-1.6c0.1-0.1 0-0.3-0.1-0.3-0.1-0.1-0.3 0-0.3 0.1l-0.8 1.6c-0.1 0.2 0 0.3 0.1 0.4zm-0.2 2.6l0.1 2.1c0 0.1 0.1 0.3 0.2 0.3 0.2 0 0.3-0.2 0.3-0.3l-0.1-2.1c0-0.1-0.2-0.2-0.3-0.2-0.1 0-0.2 0.1-0.2 0.2zm-2.1-2.4q0 0.1 0.1 0.2l1.5 0.9q0.1 0 0.1 0 0.2 0 0.2-0.1c0.1-0.1 0.1-0.2 0-0.3l-1.2-0.7-0.4-0.2c-0.1-0.1-0.3 0-0.3 0.1 0 0 0 0 0 0.1zm-0.2 3.7c0.1 0 0.1 0.1 0.2 0.1q0.1 0 0.2-0.1l0.9-1.7c0.1-0.1 0-0.2-0.1-0.3-0.1-0.1-0.3 0-0.3 0.1l-1 1.6q-0.1 0.2 0.1 0.3zm-0.3 3.4q0.1 0.1 0.2 0.1 0.1 0.1 0.2 0 0.2-0.1 0.1-0.3l-1-1.6c0-0.1-0.2-0.1-0.3 0q-0.2 0.1-0.1 0.3zm1 1.1c-0.1-0.1-0.3-0.1-0.3 0.1l-1 1.4c-0.1 0.1-0.1 0.2 0 0.3q0.1 0.1 0.2 0.1 0.1 0 0.2-0.2l1-1.4c0-0.1 0-0.3-0.1-0.3zm1.4-2.8c0.2 0 0.3-0.1 0.3-0.2 0-0.2-0.1-0.3-0.3-0.3l-1.7-0.1c-0.2 0-0.3 0.1-0.3 0.3 0 0.1 0.1 0.2 0.3 0.2zm0.1 0.8c0-0.1-0.1-0.2-0.3-0.2-0.1 0-0.2 0.1-0.2 0.2v1.8c0 0.1 0.1 0.2 0.3 0.2 0.1 0 0.2-0.1 0.2-0.2zm1.5 2.6c0.1-0.1 0.1-0.2 0-0.3-0.1-0.2-0.2-0.2-0.3 0l-1.6 1.4c-0.1 0-0.1 0.2 0 0.3 0 0.1 0.1 0.1 0.1 0.1 0.1 0 0.1 0 0.2 0zm-1.1 2.6l2.1-0.5c0.1-0.1 0.2-0.2 0.2-0.3-0.1-0.1-0.2-0.2-0.3-0.2l-2.2 0.6c-0.1 0-0.2 0.1-0.1 0.2q0 0.2 0.2 0.3 0-0.1 0.1-0.1zm2.7 1.4c0-0.1 0-0.2-0.2-0.3l-1.7-0.2c-0.2 0-0.3 0.1-0.3 0.2 0 0.2 0.1 0.3 0.2 0.3l1.8 0.2q0.2 0 0.2-0.2zm1.9-1.1l-1.4-1.2c0-0.1-0.2-0.1-0.3 0-0.1 0.1-0.1 0.3 0 0.4l1.3 1.2c0.1 0 0.2 0.1 0.2 0.1 0.1 0 0.1-0.1 0.2-0.1 0-0.1 0-0.3 0-0.4zm0.8-1.6l-0.6-1-0.3-0.5c-0.1-0.1-0.2-0.2-0.3-0.1-0.1 0.1-0.2 0.2-0.1 0.4l0.7 1.2 0.2 0.3q0.1 0.1 0.2 0.1 0.1 0 0.1 0c0.2-0.1 0.2-0.2 0.1-0.4zm0.2-1.4q0 0.1 0.2 0.1c0 0 0.1 0 0.1 0l1.4-1.1c0.1-0.1 0.1-0.3 0-0.4-0.1-0.1-0.2-0.1-0.3 0l-1.4 1.1c-0.1 0.1-0.1 0.2 0 0.3zm1.3 1.4c-0.2-0.1-0.3 0-0.4 0.1l-0.9 1.5q-0.1 0.2 0.1 0.3 0.1 0.1 0.1 0.1 0.2 0 0.2-0.1l1-1.6c0-0.1 0-0.2-0.1-0.3zm1.6 0.2l-1.1-1.8q-0.2-0.2-0.4-0.1-0.2 0.1 0 0.3l1.1 1.9q0.1 0.1 0.2 0.1 0.1 0 0.1 0c0.2-0.1 0.2-0.2 0.1-0.4zm0.4-2.9l-0.9-1.5q-0.1-0.2-0.3-0.1c-0.1 0.1-0.2 0.2-0.1 0.4l0.9 1.5q0.1 0.1 0.2 0.1 0.1 0 0.2 0 0.1-0.2 0-0.4zm1.9-3.1c0.1-0.1 0.1-0.2 0-0.3-0.1-0.1-0.3-0.1-0.3-0.1l-1.4 1.2c-0.1 0-0.1 0.2 0 0.3q0 0.1 0.2 0.1c0 0 0.1 0 0.1-0.1zm0.1 3.8c-0.1-0.1-0.3 0-0.3 0.1l-0.7 1.2c-0.1 0.1 0 0.3 0.1 0.3 0 0 0.1 0.1 0.1 0.1q0.2 0 0.2-0.1l0.7-1.3c0.1-0.1 0-0.3-0.1-0.3zm0.7-2.7q-0.2-0.1-0.3 0.1l-1.2 1.3c-0.1 0.2-0.1 0.3 0.1 0.4 0 0 0.1 0 0.1 0 0.1 0 0.2 0 0.2-0.1l1.2-1.3c0-0.1 0-0.3-0.1-0.4zm1.5 0.3c-0.1 0-0.3 0-0.3 0.2l-0.8 2c-0.1 0.1 0 0.3 0.1 0.3q0.1 0 0.1 0c0.1 0 0.2 0 0.2-0.2l0.8-2c0.1-0.1 0-0.2-0.1-0.3zm0.1-1.2l-1.3-1.2c0-0.1-0.2-0.1-0.3 0-0.1 0-0.1 0.2 0 0.3l1.3 1.3c0 0 0.1 0 0.1 0 0.1 0 0.1 0 0.2 0 0.1-0.1 0.1-0.3 0-0.4zm0.1-1q0.1 0.1 0.2 0.1 0.1 0 0.1 0l1.8-1.3c0.1 0 0.1-0.2 0.1-0.3-0.1-0.1-0.2-0.1-0.3 0l-1.8 1.2c-0.1 0-0.2 0.2-0.1 0.3zm1.3 3.9c-0.1 0-0.3 0-0.3 0.1l-0.8 1.9c0 0.2 0 0.3 0.1 0.4q0.1 0 0.1 0c0.1 0 0.2-0.1 0.3-0.2l0.8-1.9c0-0.1 0-0.2-0.2-0.3zm1.1-2c0.1 0 0.1-0.2 0-0.3 0-0.1-0.2-0.1-0.3 0l-1.3 1.1c-0.2 0.1-0.2 0.2-0.1 0.3q0.1 0.1 0.2 0.1c0.1 0 0.1 0 0.2 0zm0.8 4.6l-0.5-2c0-0.2-0.2-0.2-0.3-0.2-0.1 0-0.2 0.1-0.1 0.2l0.4 2.1q0.1 0.2 0.3 0.2c0.1 0 0.2-0.2 0.2-0.3zm1-2l-0.9-1.5q-0.2-0.2-0.4-0.1-0.2 0.2-0.1 0.4l0.9 1.5q0.1 0.1 0.3 0.1 0 0 0.1 0 0.2-0.2 0.1-0.4zm1.9-2.8c0.1-0.1 0.1-0.3 0-0.4-0.1-0.1-0.2-0.1-0.4 0l-1.6 1.3c-0.1 0.1-0.1 0.3 0 0.4q0.1 0.1 0.2 0.1c0 0 0.1 0 0.1 0zm0.1 3.6c0-0.1-0.1-0.2-0.2-0.2-0.1 0-0.3 0.1-0.3 0.2l-0.1 2.3c0 0.1 0.1 0.2 0.2 0.2q0 0 0.1 0c0.1 0 0.2-0.1 0.2-0.2zm0.9-1.2l-1.6-0.8c-0.1-0.1-0.3 0-0.3 0.1-0.1 0.1 0 0.3 0.1 0.3l1.6 0.8c0 0 0 0.1 0.1 0.1q0.1 0 0.2-0.2 0.1-0.2-0.1-0.3zm0.6-0.7q0.1 0.1 0.2 0.1 0.1 0 0.2 0 0.2-0.2 0-0.3l-0.8-1.6c-0.1-0.1-0.2-0.1-0.4-0.1q-0.2 0.2 0 0.4zm0 2.8l1-1.4q0.1-0.2-0.1-0.4c-0.1 0-0.2 0-0.3 0.1l-1 1.5q-0.1 0.2 0.1 0.3 0 0.1 0.1 0 0.1 0 0.2-0.1zm1.3 0.3c0-0.1-0.1-0.2-0.2-0.2-0.1 0-0.2 0-0.2 0.2l-0.3 2.4c0 0.1 0.1 0.2 0.2 0.2q0 0 0.1 0c0.1 0 0.2-0.1 0.2-0.2zm1.2-2.3v-1.8c0-0.1-0.1-0.2-0.3-0.2-0.1 0-0.2 0.1-0.2 0.2v1.8c0 0.1 0.1 0.2 0.3 0.2 0.1 0 0.2 0 0.2-0.2zm0.1-2.8c0-0.1 0-0.2-0.2-0.2l-1.8-0.1c-0.1 0-0.2 0.1-0.2 0.2 0 0.2 0.1 0.3 0.2 0.3l1.8 0.1c0.1 0 0.2-0.2 0.2-0.3zm0.5-0.7l-0.1-2.1c0-0.1-0.2-0.2-0.3-0.2-0.1 0-0.2 0.1-0.2 0.2l0.1 2.1c0 0.1 0.1 0.3 0.2 0.3 0.2 0 0.3-0.1 0.3-0.3zm0.3 2.7q-0.2 0-0.3 0.1c0 0.2 0 0.3 0.1 0.4h0.1zm0.8-7l-0.8 0.6c-0.1 0.1-0.1 0.3 0 0.4q0.1 0 0.2 0.1c0.1 0 0.1 0 0.2-0.1l0.4-0.3zm-1.6-0.7c0 0.1 0 0.3 0.1 0.3q0.1 0 0.2 0 0.1 0 0.2-0.2l0.8-1.6c0-0.1 0-0.3-0.2-0.3-0.1 0-0.3 0-0.3 0.1zm1.7-7.2l0.3 1.7q0 0.2 0.2 0.2l0.2-1-0.2-1c-0.1-0.1-0.2-0.2-0.3-0.2-0.2 0-0.2 0.1-0.2 0.3zm-0.5 2.6l-1.2-1.3c-0.1-0.1-0.2-0.1-0.4 0-0.1 0.1-0.1 0.3 0 0.4l1.3 1.2c0 0.1 0.1 0.1 0.1 0.1 0.1 0 0.2 0 0.2-0.1q0.2-0.2 0-0.3zm-0.5-3.7l-0.7 1.6c-0.1 0.2 0 0.3 0.1 0.4 0 0 0.1 0 0.1 0q0.1 0 0.2-0.2l0.8-1.6c0-0.1 0-0.3-0.2-0.3-0.1-0.1-0.3 0-0.3 0.1zm1.8-4.2c0-0.2-0.1-0.2-0.3-0.2l-2.1 0.5c-0.1 0.1-0.2 0.2-0.2 0.3q0.1 0.2 0.3 0.2 0 0 0 0l2.2-0.5c0.1 0 0.2-0.2 0.1-0.3zm0.7-1.4l-1.1-0.1c-0.2 0-0.3 0.1-0.3 0.3q0 0.2 0.3 0.2l1.1 0.1zm-0.6-3.4c0-0.1-0.2-0.2-0.3-0.1-0.2 0-0.2 0.2-0.2 0.3l0.7 1.6c0.1 0.1 0.2 0.2 0.3 0.2q0.1 0 0.1-0.1c0.1 0 0.1-0.2 0.1-0.3zm0.6-4.1q-0.2-0.2-0.3 0l-1.5 0.9q-0.2 0.1-0.1 0.3 0.1 0.2 0.2 0.2 0.1 0 0.1-0.1l1.5-0.9c0.1-0.1 0.1-0.2 0.1-0.4zm0.8-6.6c-0.1-0.1-0.2-0.1-0.3 0.1l-0.9 1.5c-0.1 0.1-0.1 0.2 0.1 0.3q0 0.1 0.1 0.1 0.1 0 0.2-0.2l0.9-1.5c0.1-0.1 0-0.2-0.1-0.3zm-1-1.5c-0.1 0.1-0.1 0.3 0 0.4q0.1 0 0.2 0.1c0 0 0.1 0 0.1-0.1l1.4-1.1c0.1-0.1 0.1-0.3 0.1-0.3-0.1-0.2-0.3-0.2-0.4-0.1zm1.8-5.7l-1.3-1.2c-0.1-0.1-0.2-0.1-0.4 0 0 0.1 0 0.2 0 0.4l1.3 1.2c0.1 0 0.1 0 0.2 0 0.1 0 0.1 0 0.2 0 0.1-0.2 0.1-0.3 0-0.4zm0.9-1.6l-0.7-1.1-0.2-0.4c-0.1-0.1-0.2-0.2-0.3-0.1-0.2 0.1-0.2 0.2-0.1 0.3l0.7 1.2 0.2 0.4q0.1 0.1 0.2 0.1 0.1 0 0.1-0.1 0.1-0.1 0.1-0.3zm-1.8-3.2c-0.1 0-0.3 0.1-0.3 0.2q0 0.3 0.3 0.3l1.2 0.1h0.6q0 0 0 0c0.1 0 0.3-0.1 0.3-0.2 0-0.2-0.1-0.3-0.3-0.3h-0.6zm1.3-5.6q-0.1 0-0.2 0c-0.1 0-0.2 0.1-0.2 0.2l-0.6 1.6c0 0.1 0 0.3 0.2 0.3 0 0 0 0 0.1 0 0 0 0.2 0 0.2-0.1l0.3-0.9 0.3-0.8c0.1-0.1 0-0.3-0.1-0.3zm1.1-0.7l-0.2-0.7-0.2-1c0-0.1-0.1-0.2-0.2-0.2-0.2 0-0.2 0.2-0.2 0.3l0.1 0.9 0.2 0.8q0 0.2 0.2 0.2h0.1c0.1 0 0.2-0.1 0.2-0.3zm0-4.5l-1.3-1-0.1-0.1q-0.2-0.2-0.3 0-0.2 0.2 0 0.4l0.4 0.3 1 0.8c0 0 0.1 0 0.2 0 0 0 0.1 0 0.2-0.1 0-0.1 0-0.2-0.1-0.3zm0.1-2.4c0-0.1-0.2-0.2-0.3-0.2l-1.1 0.3-0.6 0.1c-0.1 0-0.2 0.2-0.2 0.3q0 0.2 0.2 0.2h0.1l0.5-0.1 1.2-0.3c0.1 0 0.2-0.1 0.2-0.3zm0.5 3.6c0 0.2 0 0.3 0.1 0.4h0.1l0.1-1z"/><g clip-path="url(#cp2)"><path fill-rule="evenodd" class="c" d="m69.9 72.8v2.9c0 0.5-0.4 0.8-0.8 0.8h-2.3l-9.3 84.2c-0.1 0.4-0.4 0.7-0.8 0.7h-43.4c-0.4 0-0.8-0.3-0.8-0.7l-9.3-84.2h-2.3c-0.4 0-0.8-0.3-0.8-0.8v-2.9c0-0.5 0.4-0.8 0.8-0.8h1.8l-1.3-11.6c0-0.1 0-0.2 0.1-0.4 8.2-18.3 29.4-18.5 30.3-18.5h6.4c1 0 22.1 0.2 30.3 18.5 0.1 0.2 0.1 0.3 0.1 0.4l-1.3 11.6h1.8c0.4 0 0.8 0.3 0.8 0.8zm-65.5-0.8h61.2l1.3-11.5c-7.8-17.2-27.8-17.4-28.7-17.4h-6.4c-0.9 0-20.9 0.2-28.7 17.4zm0.1 1.6l0.2 1.3h60.6l0.2-1.3zm-1.5 1.3l-0.1-1.3h-1.1v1.3zm62.1 1.7h-60.3l9.2 83.2h41.9zm3.1-2.9h-1.1l-0.2 1.2h1.3z"/></g><path class="d" d="m86.9 78.3v4.3h-9.8v18.4h-4.7v-42.5h16.8v4.3h-12.1v15.5z"/><path class="d" d="m106 58.5v42.5h-4.7v-42.5z"/><path class="d" d="m137.8 101h-19.3v-4.2l14.6-34h-13.9v-4.3h18.8v4.3l-14.7 33.9h14.5z"/><path class="d" d="m169.2 101h-19.3v-4.2l14.5-34h-13.9v-4.3h18.8v4.3l-14.7 33.9h14.6z"/><path fill-rule="evenodd" class="d" d="m191.4 58.5q4.9 0 7.1 2.4 2.1 2.3 2.1 7v2q0 3.5-1.1 5.5-1.1 2.1-3.9 3 3.1 0.8 4.4 3.2 1.3 2.4 1.3 5.9v3.6q0 4.8-2.4 7.3-2.3 2.6-7.3 2.6h-9.8v-42.5zm-1.1 18.1q2.8 0 4.3-1.2 1.4-1.1 1.4-4.5v-2.5q0-2.8-1.1-4.2-1-1.3-3.6-1.4h-4.7v13.8zm1.4 20.1q5.1 0 5.1-5.8v-3.7q0-3.6-1.4-5-1.5-1.3-4.6-1.3h-4.1v15.8z"/><path class="d" d="m218.4 91q0 2.9 1.2 4.5 1.2 1.6 3.8 1.6 2.5 0 3.7-1.6 1.2-1.6 1.2-4.5v-32.5h4.4v32.3q0 4.8-2.3 7.8-2.3 2.9-7.2 2.9-4.8 0-7.1-2.9-2.3-3-2.3-7.8v-32.3h4.6z"/><path class="d" d="m264.4 101h-19.3v-4.2l14.5-34h-13.9v-4.3h18.8v4.3l-14.6 33.9h14.5z"/><path class="d" d="m295.7 101h-19.3v-4.2l14.6-34h-14v-4.3h18.8v4.3l-14.6 33.9h14.5z"/></svg>