<svg version="1.2" xmlns="http://www.w3.org/2000/svg" viewBox="0 0 224 255" width="224" height="255"><defs><clipPath clipPathUnits="userSpaceOnUse" id="cp1"><path d="m0.26 15h224.25v225h-224.25z"/></clipPath><clipPath clipPathUnits="userSpaceOnUse" id="cp2"><path d=""/></clipPath><clipPath clipPathUnits="userSpaceOnUse" id="cp3"><path d="m57 229h78v24h-78z"/></clipPath><clipPath clipPathUnits="userSpaceOnUse" id="cp4"><path d="m57.24 229.68h76.76v23.28h-76.76z"/></clipPath><clipPath clipPathUnits="userSpaceOnUse" id="cp5"><path d=""/></clipPath><clipPath clipPathUnits="userSpaceOnUse" id="cp6"><path d="m56 231h76v21h-76z"/></clipPath><clipPath clipPathUnits="userSpaceOnUse" id="cp7"><path d="m56.52 231.36h75.12v19.64h-75.12z"/></clipPath><clipPath clipPathUnits="userSpaceOnUse" id="cp8"><path d="m55 225h82v29.89h-82z"/></clipPath><clipPath clipPathUnits="userSpaceOnUse" id="cp9"><path d=""/></clipPath><clipPath clipPathUnits="userSpaceOnUse" id="cp10"><path d="m50 114h122v132h-122z"/></clipPath><clipPath clipPathUnits="userSpaceOnUse" id="cp11"><path d="m51 114.24h120.96v131.52h-120.96z"/></clipPath><clipPath clipPathUnits="userSpaceOnUse" id="cp12"><path d=""/></clipPath><clipPath clipPathUnits="userSpaceOnUse" id="cp13"><path d="m59 44h111v68h-111z"/></clipPath><clipPath clipPathUnits="userSpaceOnUse" id="cp14"><path d="m59.16 44.16h110.64v67.44h-110.64z"/></clipPath><clipPath clipPathUnits="userSpaceOnUse" id="cp15"><path d=""/></clipPath><clipPath clipPathUnits="userSpaceOnUse" id="cp16"><path d="m58 46h112v68h-112z"/></clipPath><clipPath clipPathUnits="userSpaceOnUse" id="cp17"><path d="m58.68 46.08h110.88v67.68h-110.88z"/></clipPath><clipPath clipPathUnits="userSpaceOnUse" id="cp18"><path d=""/></clipPath><clipPath clipPathUnits="userSpaceOnUse" id="cp19"><path d="m73 49h53v56h-53z"/></clipPath><clipPath clipPathUnits="userSpaceOnUse" id="cp20"><path d="m74 50h51v54.88h-51z"/></clipPath><clipPath clipPathUnits="userSpaceOnUse" id="cp21"><path d=""/></clipPath><clipPath clipPathUnits="userSpaceOnUse" id="cp22"><path d="m137 49h33v63h-33z"/></clipPath><clipPath clipPathUnits="userSpaceOnUse" id="cp23"><path d="m137.4 49.68h32.4v61.92h-32.4z"/></clipPath><clipPath clipPathUnits="userSpaceOnUse" id="cp24"><path d=""/></clipPath><clipPath clipPathUnits="userSpaceOnUse" id="cp25"><path d="m137 49h33v63h-33z"/></clipPath><clipPath clipPathUnits="userSpaceOnUse" id="cp26"><path d="m137.4 49.68h32.4v61.92h-32.4z"/></clipPath><clipPath clipPathUnits="userSpaceOnUse" id="cp27"><path d=""/></clipPath><clipPath clipPathUnits="userSpaceOnUse" id="cp28"><path d="m51 96h51v18h-51z"/></clipPath><clipPath clipPathUnits="userSpaceOnUse" id="cp29"><path d="m51.48 96.24h49.68v17.52h-49.68z"/></clipPath><clipPath clipPathUnits="userSpaceOnUse" id="cp30"><path d=""/></clipPath><clipPath clipPathUnits="userSpaceOnUse" id="cp31"><path d="m63 111h112v21h-112z"/></clipPath><clipPath clipPathUnits="userSpaceOnUse" id="cp32"><path d="m63.72 111.12h110.4v20.4h-110.4z"/></clipPath><clipPath clipPathUnits="userSpaceOnUse" id="cp33"><path d=""/></clipPath><clipPath clipPathUnits="userSpaceOnUse" id="cp34"><path d="m128 200h6v7h-6z"/></clipPath><clipPath clipPathUnits="userSpaceOnUse" id="cp35"><path d="m128.04 201h5.76v5h-5.76z"/></clipPath><clipPath clipPathUnits="userSpaceOnUse" id="cp36"><path d=""/></clipPath><clipPath clipPathUnits="userSpaceOnUse" id="cp37"><path d="m107 218h9v9h-9z"/></clipPath><clipPath clipPathUnits="userSpaceOnUse" id="cp38"><path d=""/></clipPath><clipPath clipPathUnits="userSpaceOnUse" id="cp39"><path d="m117 207h8v9h-8z"/></clipPath><clipPath clipPathUnits="userSpaceOnUse" id="cp40"><path d=""/></clipPath><clipPath clipPathUnits="userSpaceOnUse" id="cp41"><path d="m111 181h5v6h-5z"/></clipPath><clipPath clipPathUnits="userSpaceOnUse" id="cp42"><path d="m112 182h3.8v4h-3.8z"/></clipPath><clipPath clipPathUnits="userSpaceOnUse" id="cp43"><path d=""/></clipPath><clipPath clipPathUnits="userSpaceOnUse" id="cp44"><path d="m76 180h7v7h-7z"/></clipPath><clipPath clipPathUnits="userSpaceOnUse" id="cp45"><path d="m77 180h5.44v6.48h-5.44z"/></clipPath><clipPath clipPathUnits="userSpaceOnUse" id="cp46"><path d=""/></clipPath><clipPath clipPathUnits="userSpaceOnUse" id="cp47"><path d="m132 179h5v5h-5z"/></clipPath><clipPath clipPathUnits="userSpaceOnUse" id="cp48"><path d="m132.36 179.04h4.32v4.08h-4.32z"/></clipPath><clipPath clipPathUnits="userSpaceOnUse" id="cp49"><path d="m132.36 179.04h4.32v3.96h-4.32z"/></clipPath><clipPath clipPathUnits="userSpaceOnUse" id="cp50"><path d="m133 179.04h2v1.96h-2z"/></clipPath><clipPath clipPathUnits="userSpaceOnUse" id="cp51"><path d=""/></clipPath><clipPath clipPathUnits="userSpaceOnUse" id="cp52"><path d="m73 195h8v10h-8z"/></clipPath><clipPath clipPathUnits="userSpaceOnUse" id="cp53"><path d="m73.56 195.6h6.96v8.4h-6.96z"/></clipPath><clipPath clipPathUnits="userSpaceOnUse" id="cp54"><path d="m73.56 195.6h6.44v7.4h-6.44z"/></clipPath><clipPath clipPathUnits="userSpaceOnUse" id="cp55"><path d=""/></clipPath><clipPath clipPathUnits="userSpaceOnUse" id="cp56"><path d="m86 201h7v7h-7z"/></clipPath><clipPath clipPathUnits="userSpaceOnUse" id="cp57"><path d="m86.52 201.36h6.48v6h-6.48z"/></clipPath><clipPath clipPathUnits="userSpaceOnUse" id="cp58"><path d="m86.52 201.36h6.48v5.64h-6.48z"/></clipPath><clipPath clipPathUnits="userSpaceOnUse" id="cp59"><path d="m88 201.36h3v2.64h-3z"/></clipPath><clipPath clipPathUnits="userSpaceOnUse" id="cp60"><path d=""/></clipPath><clipPath clipPathUnits="userSpaceOnUse" id="cp61"><path d="m57 168h95v71h-95z"/></clipPath><clipPath clipPathUnits="userSpaceOnUse" id="cp62"><path d="m58 168.24h93.56v70.56h-93.56z"/></clipPath><clipPath clipPathUnits="userSpaceOnUse" id="cp63"><path d=""/></clipPath><clipPath clipPathUnits="userSpaceOnUse" id="cp64"><path d="m84 168h8v5h-8z"/></clipPath><clipPath clipPathUnits="userSpaceOnUse" id="cp65"><path d="m85 169h6.8v3.32h-6.8z"/></clipPath><clipPath clipPathUnits="userSpaceOnUse" id="cp66"><path d=""/></clipPath><clipPath clipPathUnits="userSpaceOnUse" id="cp67"><path d="m59 159h93v21h-93z"/></clipPath><clipPath clipPathUnits="userSpaceOnUse" id="cp68"><path d="m60 159.12h91.8v19.88h-91.8z"/></clipPath><clipPath clipPathUnits="userSpaceOnUse" id="cp69"><path d=""/></clipPath><clipPath clipPathUnits="userSpaceOnUse" id="cp70"><path d="m122 162h12v4h-12z"/></clipPath><clipPath clipPathUnits="userSpaceOnUse" id="cp71"><path d="m122.28 162.72h11.04v2.4h-11.04z"/></clipPath><clipPath clipPathUnits="userSpaceOnUse" id="cp72"><path d=""/></clipPath><clipPath clipPathUnits="userSpaceOnUse" id="cp73"><path d="m131 172h7v3h-7z"/></clipPath><clipPath clipPathUnits="userSpaceOnUse" id="cp74"><path d="m131.4 173h6v1.96h-6z"/></clipPath><clipPath clipPathUnits="userSpaceOnUse" id="cp75"><path d=""/></clipPath><clipPath clipPathUnits="userSpaceOnUse" id="cp76"><path d="m79 173h23v4h-23z"/></clipPath><clipPath clipPathUnits="userSpaceOnUse" id="cp77"><path d="m79.56 173.52h21.6v3.12h-21.6z"/></clipPath><clipPath clipPathUnits="userSpaceOnUse" id="cp78"><path d=""/></clipPath><clipPath clipPathUnits="userSpaceOnUse" id="cp79"><path d="m70 163h9v7h-9z"/></clipPath><clipPath clipPathUnits="userSpaceOnUse" id="cp80"><path d="m70.2 164h8.64v5.92h-8.64z"/></clipPath><clipPath clipPathUnits="userSpaceOnUse" id="cp81"><path d=""/></clipPath><clipPath clipPathUnits="userSpaceOnUse" id="cp82"><path d="m134 131h12v40h-12z"/></clipPath><clipPath clipPathUnits="userSpaceOnUse" id="cp83"><path d="m134.28 131.04h11.04v39.6h-11.04z"/></clipPath><clipPath clipPathUnits="userSpaceOnUse" id="cp84"><path d=""/></clipPath><clipPath clipPathUnits="userSpaceOnUse" id="cp85"><path d="m146 167h5v4h-5z"/></clipPath><clipPath clipPathUnits="userSpaceOnUse" id="cp86"><path d="m146.52 167.52h4.32v3.36h-4.32z"/></clipPath><clipPath clipPathUnits="userSpaceOnUse" id="cp87"><path d=""/></clipPath><clipPath clipPathUnits="userSpaceOnUse" id="cp88"><path d="m99 129h73v117h-73z"/></clipPath><clipPath clipPathUnits="userSpaceOnUse" id="cp89"><path d="m99.48 129.84h72.48v115.92h-72.48z"/></clipPath><clipPath clipPathUnits="userSpaceOnUse" id="cp90"><path d=""/></clipPath><clipPath clipPathUnits="userSpaceOnUse" id="cp91"><path d="m99 129h73v117h-73z"/></clipPath><clipPath clipPathUnits="userSpaceOnUse" id="cp92"><path d="m99.48 130h72.48v115.76h-72.48z"/></clipPath><clipPath clipPathUnits="userSpaceOnUse" id="cp93"><path d=""/></clipPath><clipPath clipPathUnits="userSpaceOnUse" id="cp94"><path d="m62 121h23v110h-23z"/></clipPath><clipPath clipPathUnits="userSpaceOnUse" id="cp95"><path d="m62.76 121.2h21.84v109.44h-21.84z"/></clipPath><clipPath clipPathUnits="userSpaceOnUse" id="cp96"><path d=""/></clipPath><clipPath clipPathUnits="userSpaceOnUse" id="cp97"><path d="m76 124h21v112h-21z"/></clipPath><clipPath clipPathUnits="userSpaceOnUse" id="cp98"><path d="m77 124.08h19.6v111.12h-19.6z"/></clipPath><clipPath clipPathUnits="userSpaceOnUse" id="cp99"><path d=""/></clipPath><clipPath clipPathUnits="userSpaceOnUse" id="cp100"><path d="m124 131h24v40h-24z"/></clipPath><clipPath clipPathUnits="userSpaceOnUse" id="cp101"><path d="m125 131.04h22.48v39.6h-22.48z"/></clipPath><clipPath clipPathUnits="userSpaceOnUse" id="cp102"><path d=""/></clipPath><clipPath clipPathUnits="userSpaceOnUse" id="cp103"><path d="m116 52h26v14h-26z"/></clipPath><clipPath clipPathUnits="userSpaceOnUse" id="cp104"><path d="m116.28 52.56h24.96v12.96h-24.96z"/></clipPath><clipPath clipPathUnits="userSpaceOnUse" id="cp105"><path d=""/></clipPath><clipPath clipPathUnits="userSpaceOnUse" id="cp106"><path d="m116 52h26v14h-26z"/></clipPath><clipPath clipPathUnits="userSpaceOnUse" id="cp107"><path d="m116.28 52.56h24.96v12.96h-24.96z"/></clipPath><clipPath clipPathUnits="userSpaceOnUse" id="cp108"><path d="m106-0.11h18v9.11h-18z"/></clipPath><clipPath clipPathUnits="userSpaceOnUse" id="cp109"><path d=""/></clipPath><clipPath clipPathUnits="userSpaceOnUse" id="cp110"><path d="m52 124h35v25h-35z"/></clipPath><clipPath clipPathUnits="userSpaceOnUse" id="cp111"><path d="m53 125h33v23.8h-33z"/></clipPath><clipPath clipPathUnits="userSpaceOnUse" id="cp112"><path d=""/></clipPath><clipPath clipPathUnits="userSpaceOnUse" id="cp113"><path d="m134 141h31v28h-31z"/></clipPath><clipPath clipPathUnits="userSpaceOnUse" id="cp114"><path d="m134.52 141.36h30v27.12h-30z"/></clipPath><clipPath clipPathUnits="userSpaceOnUse" id="cp115"><path d=""/></clipPath><clipPath clipPathUnits="userSpaceOnUse" id="cp116"><path d="m108 2h14v5h-14z"/></clipPath><clipPath clipPathUnits="userSpaceOnUse" id="cp117"><path d="m109 2.4h12.56v3.84h-12.56z"/></clipPath><clipPath clipPathUnits="userSpaceOnUse" id="cp118"><path d=""/></clipPath><clipPath clipPathUnits="userSpaceOnUse" id="cp119"><path d="m51 115h83v19h-83z"/></clipPath><clipPath clipPathUnits="userSpaceOnUse" id="cp120"><path d="m51.24 115.44h81.76v18h-81.76z"/></clipPath><clipPath clipPathUnits="userSpaceOnUse" id="cp121"><path d=""/></clipPath><clipPath clipPathUnits="userSpaceOnUse" id="cp122"><path d="m139 132h32v13h-32z"/></clipPath><clipPath clipPathUnits="userSpaceOnUse" id="cp123"><path d="m140 132.48h30v11.52h-30z"/></clipPath><clipPath clipPathUnits="userSpaceOnUse" id="cp124"><path d=""/></clipPath><clipPath clipPathUnits="userSpaceOnUse" id="cp125"><path d="m113 5h26v108h-26z"/></clipPath><clipPath clipPathUnits="userSpaceOnUse" id="cp126"><path d=""/></clipPath><clipPath clipPathUnits="userSpaceOnUse" id="cp127"><path d="m133 170h10v2h-10z"/></clipPath><clipPath clipPathUnits="userSpaceOnUse" id="cp128"><path d="m134 171h8.44v0.6h-8.44z"/></clipPath><clipPath clipPathUnits="userSpaceOnUse" id="cp129"><path d=""/></clipPath><clipPath clipPathUnits="userSpaceOnUse" id="cp130"><path d="m128 171h6v2h-6z"/></clipPath><clipPath clipPathUnits="userSpaceOnUse" id="cp131"><path d="m128.04 171.36h4.96v0.96h-4.96z"/></clipPath><clipPath clipPathUnits="userSpaceOnUse" id="cp132"><path d=""/></clipPath><clipPath clipPathUnits="userSpaceOnUse" id="cp133"><path d="m123 167h6v4h-6z"/></clipPath><clipPath clipPathUnits="userSpaceOnUse" id="cp134"><path d="m124 167.76h5v3.12h-5z"/></clipPath><clipPath clipPathUnits="userSpaceOnUse" id="cp135"><path d=""/></clipPath><clipPath clipPathUnits="userSpaceOnUse" id="cp136"><path d="m127 167h3v3h-3z"/></clipPath><clipPath clipPathUnits="userSpaceOnUse" id="cp137"><path d="m127.08 167.52h2.4v2.4h-2.4z"/></clipPath></defs><style>.a{fill:#ffda00}.b{fill:#fff}.c{fill:#004aad}.d{fill:#38b6ff}</style><g clip-path="url(#cp1)"><path class="a" d="m224.7 127.5q0 2.8-0.1 5.5-0.2 2.8-0.4 5.5-0.3 2.7-0.7 5.5-0.4 2.7-0.9 5.4-0.6 2.7-1.3 5.4-0.6 2.6-1.4 5.3-0.8 2.6-1.8 5.2-0.9 2.6-1.9 5.1-1.1 2.6-2.3 5.1-1.1 2.5-2.4 4.9-1.3 2.4-2.8 4.8-1.4 2.3-2.9 4.6-1.5 2.3-3.2 4.5-1.6 2.3-3.4 4.4-1.7 2.1-3.6 4.2-1.8 2-3.8 3.9-1.9 2-3.9 3.8-2.1 1.9-4.2 3.6-2.1 1.8-4.4 3.4-2.2 1.7-4.5 3.2-2.3 1.5-4.6 2.9-2.4 1.5-4.8 2.8-2.4 1.3-4.9 2.4-2.5 1.2-5.1 2.3-2.5 1-5.1 1.9-2.6 1-5.2 1.8-2.7 0.8-5.3 1.4-2.7 0.7-5.4 1.3-2.7 0.5-5.4 0.9-2.8 0.4-5.5 0.7-2.7 0.2-5.5 0.4-2.7 0.1-5.5 0.1-2.8 0-5.5-0.1-2.8-0.2-5.5-0.4-2.7-0.3-5.5-0.7-2.7-0.4-5.4-0.9-2.7-0.6-5.4-1.3-2.6-0.6-5.3-1.4-2.6-0.8-5.2-1.8-2.6-0.9-5.1-1.9-2.6-1.1-5.1-2.3-2.5-1.1-4.9-2.4-2.4-1.3-4.8-2.8-2.4-1.4-4.6-2.9-2.3-1.5-4.5-3.2-2.3-1.6-4.4-3.4-2.1-1.7-4.2-3.6-2-1.8-3.9-3.8-2-1.9-3.8-3.9-1.9-2.1-3.6-4.2-1.8-2.1-3.4-4.4-1.7-2.2-3.2-4.5-1.5-2.3-2.9-4.6-1.5-2.4-2.8-4.8-1.3-2.4-2.4-4.9-1.2-2.5-2.3-5.1-1-2.5-2-5.1-0.9-2.6-1.7-5.2-0.8-2.7-1.4-5.3-0.7-2.7-1.3-5.4-0.5-2.7-0.9-5.4-0.4-2.8-0.7-5.5-0.2-2.7-0.4-5.5-0.1-2.7-0.1-5.5 0-2.8 0.1-5.5 0.2-2.8 0.4-5.5 0.3-2.7 0.7-5.5 0.4-2.7 0.9-5.4 0.6-2.7 1.3-5.4 0.6-2.6 1.4-5.3 0.8-2.6 1.7-5.2 1-2.6 2-5.1 1.1-2.6 2.3-5.1 1.1-2.5 2.4-4.9 1.3-2.4 2.8-4.8 1.4-2.4 2.9-4.6 1.5-2.3 3.2-4.5 1.6-2.3 3.4-4.4 1.7-2.1 3.6-4.2 1.8-2 3.8-3.9 1.9-2 3.9-3.8 2.1-1.9 4.2-3.6 2.1-1.8 4.4-3.4 2.2-1.7 4.5-3.2 2.2-1.5 4.6-2.9 2.4-1.5 4.8-2.8 2.4-1.3 4.9-2.4 2.5-1.2 5.1-2.3 2.5-1 5.1-2 2.6-0.9 5.2-1.7 2.7-0.8 5.3-1.4 2.7-0.7 5.4-1.3 2.7-0.5 5.4-0.9 2.8-0.4 5.5-0.7 2.7-0.2 5.5-0.4 2.7-0.1 5.5-0.1 2.8 0 5.5 0.1 2.8 0.2 5.5 0.4 2.7 0.3 5.5 0.7 2.7 0.4 5.4 0.9 2.7 0.6 5.4 1.3 2.6 0.6 5.3 1.4 2.6 0.8 5.2 1.7 2.6 1 5.1 2 2.6 1.1 5.1 2.3 2.5 1.1 4.9 2.4 2.4 1.3 4.8 2.8 2.3 1.4 4.6 2.9 2.3 1.5 4.5 3.2 2.3 1.6 4.4 3.4 2.1 1.7 4.2 3.6 2 1.8 3.9 3.8 2 1.9 3.8 3.9 1.9 2.1 3.6 4.2 1.8 2.1 3.4 4.4 1.7 2.2 3.2 4.5 1.5 2.2 2.9 4.6 1.5 2.4 2.8 4.8 1.3 2.4 2.4 4.9 1.2 2.5 2.3 5.1 1 2.5 1.9 5.1 1 2.6 1.8 5.2 0.8 2.7 1.4 5.3 0.7 2.7 1.3 5.4 0.5 2.7 0.9 5.4 0.4 2.8 0.7 5.5 0.2 2.7 0.4 5.5 0.1 2.7 0.1 5.5z"/></g><path class="b" d="m133.7 240.3c-0.3 2.3-1.3 4.1-2.5 5.6-2.3 2.8-6.1 6.4-9.7 6.6-22 1.5-42.9-2.4-59-8.9-3.7-1.6-4.6-8.5-4.9-13.8 23 12.5 50.5 15.9 76.1 10.5z"/><g clip-path="url(#cp2)"><g clip-path="url(#cp3)"><g clip-path="url(#cp4)"><path class="c" d="m133.7 240.3c-0.3 2.3-1.3 4.1-2.5 5.6-2.3 2.8-6.1 6.4-9.7 6.6-22 1.5-42.9-2.4-59-8.9-3.7-1.6-4.6-8.5-4.9-13.8 23 12.5 50.5 15.9 76.1 10.5z"/></g></g></g><g clip-path="url(#cp5)"><g clip-path="url(#cp6)"><g clip-path="url(#cp7)"><path class="c" d="m64.1 241.3c-0.2-0.9 0.8-1.7 1.8-1.4 17 6.4 35.6 9.7 53.9 7.5 6.9-0.7 3.8 2.6 2.7 3.3-0.6 0.7 0.4-0.4 1.2-0.7 2.2-0.4 4.3-1.5 5.7-3.2 0.8-0.9 3.7-5.1 0.6-5-23.6-0.1-49.3 0.1-71-9.8-0.8-0.4-1.8 0-2 0.8-0.5 2.2-0.1 4.5 1.1 6.4 0.6 1.6 6.8 6.5 6 2.1z"/></g></g></g><g clip-path="url(#cp8)"><path fill-rule="evenodd" class="c" d="m112.2 255.1c-17.6 0-35.3-3.2-50.5-9.4v-0.1c-4.9-2.1-5.9-9.4-6.3-15.6l-0.3-4.1 3.6 2c22.2 12 48.7 15.6 74.5 10.2l3.1-0.6-0.4 3.1c-0.3 2.4-1.4 4.7-3 6.7-2.7 3.2-6.8 7.1-11.3 7.4-3.1 0.3-6.2 0.4-9.4 0.4zm-48.8-13.6c17.3 7 37.9 10.2 58 8.8 2.1-0.1 5.2-2.3 8-5.8 0.4-0.5 0.7-0.9 1-1.3-12 2.1-24 2.4-36 0.7-12.2-1.6-23.6-5-34.2-10.3 0.7 5.6 2.1 7.4 3.2 7.9z"/></g><path class="b" d="m169.4 130.1l2.2 5.8-7.3 8.4-22.9 88.5c0 0-11.3 17.4-42.5 11.6-31.1-5.9-47.9-20.3-47.9-20.3l3.6-70.4v-27.1c0 0-2.8-4.9-2.8-5.2 0-0.4 2.1-6.9 2.1-6.9l42.8 11.7 42 5.9 17.6-0.4z"/><g clip-path="url(#cp9)"><g clip-path="url(#cp10)"><g clip-path="url(#cp11)"><path class="c" d="m171.6 135.9l-7.3 8.4-22.9 88.5c0 0-10.6 16.3-39.6 12q-1.4-0.2-2.9-0.4c-31.1-5.9-47.9-20.3-47.9-20.3l3.6-70.4v-27.1c0 0-2.8-4.9-2.8-5.2 0-0.4 2.1-6.9 2.1-6.9l42.8 11.7 42 5.9 5.9-0.2 11.7-0.2 13.1-1.7z"/></g></g></g><g clip-path="url(#cp12)"><g clip-path="url(#cp13)"><g clip-path="url(#cp14)"><path class="b" d="m59.4 95.9c0 0 9.8-58.7 63.4-50.6 17.7 3.7 26.2 10.5 26.2 10.5 0 0 12.8 12.3 15.3 18.4 2.5 6.1 5.5 24.1 5.5 24.1l-1.8 13.2c0 0-74 1.4-108.6-15.6z"/></g></g></g><path class="b" d="m136.8 111.9q-3-0.3-6.1-0.6-3.2-0.3-6.4-0.6l-14.8-103.3 6.1-0.9 2.1-0.3 3.9-0.6 0.1 0.9z"/><path class="b" d="m113.3 9.9l7.5 60.8-11-61.6z"/><path class="c" d="m127.4 62l4.4-0.6 7.2 50.1-4.4 0.6z"/><path class="c" d="m115.2 63l4.4-0.7 6.9 48-4.4 0.6z"/><g clip-path="url(#cp15)"><g clip-path="url(#cp16)"><g clip-path="url(#cp17)"><path class="c" d="m169.4 100.3l-1.8 13.2c0 0-9.7 0.2-23.9-0.4-2.4-0.1-4.9-0.2-7.5-0.3q-6-0.4-12.5-0.9c-22.3-1.9-48.1-5.8-64.7-13.9-0.3-0.2 1.3-5.4 1.4-5.7 1.3-4.7 3-9.3 5.1-13.6 2.7-5.7 6.1-11.2 10.4-15.9 4.7-5.3 10.5-9.6 17.1-12.4 3.4-1.5 6.9-2.4 10.5-3.1q3-0.5 6-0.6c1-0.1 2.2 0 3.2-0.2 1.2-0.1 2-0.2 2.6 1.1 0.3 0.8 0.3 1.7 0.3 2.5q0.1 4.8 0.8 9.5c0.2 1.1 0.5 2.3 1.3 3.1 1 1.2 2.8 1.4 4.2 1.2 2-0.2 3.9-0.4 5.8-0.9 0.8-0.2 1.5-0.5 1.9-1.1 0.4-0.6 0.4-1.4 0.2-2.1-0.7-3.3-3-6-3.5-9.3-0.1-0.5-0.2-1 0.1-1.4 0.8-1.5 4.9 0.5 6 0.9q2.6 0.8 5.1 1.9c7.5 3 11.2 6 11.2 6 0 0 12.8 12.3 15.3 18.4 2.4 6.1 5.4 24 5.4 24z"/></g></g></g><g clip-path="url(#cp18)"><g clip-path="url(#cp19)"><g clip-path="url(#cp20)"><path class="b" d="m115.5 62.5c-2.8-1-7.4-3.7-7.2-6.5 0.2-2.4 4.3-3.6 5.9-5-2.6-1.2-9.4-0.5-12.7 3-15.1 10.1-25.8 26.7-27.5 44.9l9.9 2.7c1.3-14.7 6.4-30.4 18-40.1 0.7-0.5 1.6-0.4 2.2 0.3 0.4 0.4 0.8 0.9 1.3 1.4 0.6 0.5 0.7 1.4 0.3 2.1-8.4 10.8-12.4 24.6-13.4 38.2 4.1 1.2 6 0.8 6 0.8 1.7-13.4 6.5-26.5 13.6-38 2.5-2.7 6.5-1 13-1.6-3.3 0.2-6.4-1.1-9.4-2.2z"/></g></g></g><g clip-path="url(#cp21)"><g clip-path="url(#cp22)"><g clip-path="url(#cp23)"><g clip-path="url(#cp24)"><g clip-path="url(#cp25)"><g clip-path="url(#cp26)"><path class="c" d="m169.8 98.3l-1.8 13.2c0 0-9.8 0.1-23.9-0.4 0.3-0.5 0.6-1.1 0.9-1.6 17.8-27-7-59.3-7.2-59.7 7.5 3 11.2 6 11.2 6 0 0 12.8 12.3 15.3 18.4 2.5 6.1 5.5 24.1 5.5 24.1z"/></g></g></g></g></g></g><path class="c" d="m59.4 95.9c0 0-7.2 1.7-7.8 6-0.6 4.3 2.3 11.5 2.3 11.5l7.2 3.4 47.8 11.2 40.1 4.1 18-0.9 4.7-3.7 2.3-4.2-2.8-10.2-5.1-1.7-48.4-1.9-40.2-8.4z"/><g clip-path="url(#cp27)"><g clip-path="url(#cp28)"><g clip-path="url(#cp29)"><path class="b" d="m56.8 113.4c-1.1-4.7-1.5-11.4 4.2-11 0.7 0.1 1.3 0.2 1.8 0.4 5.7 1.9 18.3 5.3 38.3 6.6-14.9-4.2-43.6-12.9-43.6-12.9l-5.7 6.9 2.1 10z"/></g></g></g><g clip-path="url(#cp30)"><g clip-path="url(#cp31)"><g clip-path="url(#cp32)"><path class="c" d="m64 117.5c0 0 73.4 14.6 79.4-5l25.6-1 2.3 1.7 2.7 6.6-4.6 10.3c-5.5 4.6-90.3-5.8-105.4-12.6z"/></g></g></g><path class="c" d="m151.3 170.2l-18.1 61.8c-0.4 1.2-1.2 2.1-2.3 2.7-5 2.4-12.1 3.7-20.7 3.7-8.1 0-16.9-1.1-25.2-3.3q-2-0.5-3.9-1.1c-0.1 0-0.1 0-0.1 0q-0.8-0.3-1.6-0.5-1.2-0.4-2.4-0.9-1.5-0.5-3-1.1c-1.1-0.4-2.2-0.9-3.2-1.4-3-1.4-5.8-3-8-4.6q-1.9-1.4-3.3-2.9c-0.8-0.9-1.3-2-1.2-3.2l1.9-51.1c1.5 0.3 4.1 0.8 7.2 1.6 2.9 0.7 6.2 1.6 9.7 2.5 2.1 0.6 4.2 1.1 6.3 1.7q3.2 0.9 6 1.6c3.8 1.1 7.1 1.9 9.1 2.4 1.2 0.4 3.1 0.5 5.7 0.5 12.8 0 39.6-7.3 47.1-8.4z"/><path class="d" d="m101.6 207.3q0.7 0.2 1.2 0.8 0.5 0.5 0.8 1.2 0.2 0.7 0.2 1.5 0 0.9-0.2 1.7-0.3 0.8-0.8 1.4-0.5 0.6-1.2 1-0.6 0.4-1.4 0.5-0.7 0.1-1.3-0.1-0.7-0.2-1.2-0.7-0.5-0.6-0.8-1.3-0.3-0.7-0.3-1.5 0-0.8 0.3-1.6 0.2-0.8 0.8-1.5 0.5-0.6 1.1-1 0.7-0.4 1.4-0.5 0.7-0.1 1.4 0.1z"/><path class="b" d="m97.3 210.6c-0.6 1.4-0.3 2.8 0.3 3.9-0.9-1.1-1.3-2.7-0.7-4.4 0.7-2.2 2.9-3.5 4.7-2.8q1.1 0.4 1.6 1.3c-0.3-0.4-0.7-0.7-1.2-0.9-1.9-0.6-4 0.7-4.7 2.9z"/><path class="b" d="m98.2 208.7c0.2-0.7 1-1.2 1.6-0.9 0.6 0.2 0.9 0.9 0.7 1.7-0.3 0.7-1 1.2-1.6 0.9-0.6-0.2-1-0.9-0.7-1.7z"/><path class="d" d="m124.3 190.7q0.4 0.1 0.8 0.4 0.3 0.4 0.6 0.8 0.2 0.5 0.2 1 0 0.4-0.1 0.9-0.2 0.5-0.5 0.9-0.3 0.3-0.8 0.6-0.4 0.2-0.9 0.2-0.5 0-0.9-0.1-0.5-0.2-0.9-0.5-0.3-0.3-0.5-0.8-0.2-0.4-0.3-0.9 0-0.5 0.2-1 0.1-0.4 0.5-0.8 0.3-0.4 0.7-0.6 0.5-0.2 0.9-0.2 0.5-0.1 1 0.1z"/><path class="b" d="m121.4 192.5c-0.3 0.8-0.1 1.7 0.4 2.4-0.7-0.7-1-1.7-0.6-2.7 0.4-1.3 1.8-2 3.1-1.6 0.4 0.2 0.8 0.5 1.1 0.9q-0.4-0.4-0.9-0.6c-1.2-0.4-2.6 0.3-3.1 1.6z"/><path class="b" d="m122 191.4c0.2-0.5 0.7-0.7 1.1-0.6 0.5 0.2 0.7 0.7 0.5 1.1-0.1 0.5-0.6 0.7-1.1 0.6-0.4-0.2-0.6-0.6-0.5-1.1z"/><path class="d" d="m103.4 229.2q0.5 0.2 0.8 0.5 0.4 0.3 0.6 0.8 0.2 0.4 0.2 0.9 0 0.5-0.1 1-0.2 0.4-0.5 0.8-0.3 0.4-0.8 0.6-0.4 0.2-0.9 0.3-0.5 0-0.9-0.2-0.5-0.1-0.8-0.4-0.4-0.4-0.6-0.8-0.2-0.4-0.2-0.9-0.1-0.5 0.1-1 0.2-0.5 0.5-0.8 0.3-0.4 0.7-0.6 0.5-0.3 1-0.3 0.4 0 0.9 0.1z"/><path class="b" d="m100.6 231.1c-0.3 0.8-0.2 1.7 0.3 2.3-0.7-0.6-0.9-1.6-0.6-2.6 0.5-1.3 1.9-2 3.1-1.6 0.5 0.2 0.9 0.4 1.1 0.8q-0.3-0.4-0.8-0.5c-1.3-0.4-2.7 0.3-3.1 1.6z"/><path class="b" d="m101.2 230c0.1-0.5 0.6-0.7 1.1-0.6 0.4 0.2 0.6 0.7 0.5 1.1-0.2 0.5-0.7 0.7-1.1 0.6-0.4-0.2-0.7-0.7-0.5-1.1z"/><path class="d" d="m104.1 190.3q0.5 0.2 0.9 0.6 0.4 0.3 0.6 0.8 0.2 0.5 0.2 1.1 0 0.5-0.1 1-0.2 0.6-0.6 1-0.3 0.4-0.8 0.7-0.5 0.2-1 0.3-0.5 0-1-0.1-0.5-0.2-0.9-0.6-0.4-0.3-0.6-0.8-0.2-0.5-0.2-1.1 0-0.5 0.1-1 0.2-0.6 0.6-1 0.3-0.4 0.8-0.7 0.5-0.2 1-0.3 0.5 0 1 0.1z"/><path class="b" d="m101 192.5c-0.3 0.9-0.1 1.9 0.4 2.6-0.7-0.7-1-1.8-0.6-2.9 0.5-1.5 2-2.4 3.4-1.9 0.5 0.2 0.9 0.5 1.1 0.9-0.2-0.2-0.5-0.5-0.9-0.6-1.4-0.4-2.9 0.4-3.4 1.9z"/><path class="b" d="m101.7 191.2c0.2-0.5 0.7-0.8 1.2-0.6 0.4 0.1 0.7 0.7 0.5 1.2-0.2 0.5-0.7 0.8-1.2 0.6-0.4-0.1-0.7-0.7-0.5-1.2z"/><g clip-path="url(#cp33)"><g clip-path="url(#cp34)"><g clip-path="url(#cp35)"><path class="d" d="m131.7 201.7q0.4 0.1 0.7 0.4 0.3 0.3 0.5 0.7 0.1 0.4 0.2 0.8 0 0.4-0.2 0.8-0.1 0.5-0.4 0.8-0.3 0.3-0.6 0.5-0.4 0.2-0.8 0.3-0.4 0-0.8-0.1-0.4-0.2-0.7-0.4-0.3-0.3-0.4-0.7-0.2-0.4-0.2-0.8 0-0.5 0.1-0.9 0.1-0.4 0.4-0.7 0.3-0.4 0.7-0.6 0.3-0.2 0.7-0.2 0.5 0 0.8 0.1z"/></g><path class="b" d="m129.3 203.4c-0.2 0.7-0.1 1.5 0.3 2-0.5-0.5-0.7-1.4-0.4-2.2 0.4-1.2 1.5-1.8 2.6-1.4 0.4 0.1 0.6 0.4 0.9 0.6-0.2-0.2-0.4-0.3-0.7-0.4-1.1-0.4-2.3 0.2-2.7 1.4z"/><path class="b" d="m129.8 202.4c0.2-0.4 0.6-0.6 0.9-0.5 0.4 0.1 0.6 0.5 0.5 0.9-0.1 0.4-0.6 0.7-0.9 0.6-0.4-0.2-0.6-0.6-0.5-1z"/></g></g><g clip-path="url(#cp36)"><g clip-path="url(#cp37)"><path class="d" d="m112.2 219.6q0.5 0.2 0.9 0.6 0.4 0.3 0.6 0.8 0.2 0.5 0.2 1.1 0 0.5-0.1 1-0.2 0.6-0.6 1-0.3 0.4-0.8 0.7-0.5 0.2-1 0.3-0.5 0-1-0.1-0.5-0.2-0.9-0.6-0.4-0.3-0.6-0.8-0.2-0.5-0.2-1.1-0.1-0.5 0.1-1 0.2-0.6 0.6-1 0.3-0.4 0.8-0.7 0.5-0.2 1-0.3 0.5 0 1 0.1z"/><path class="b" d="m109.1 221.8c-0.3 0.9-0.1 1.9 0.4 2.6-0.7-0.7-1-1.8-0.6-2.9 0.5-1.5 2-2.4 3.3-1.9 0.6 0.2 0.9 0.5 1.2 0.9-0.2-0.2-0.5-0.4-0.9-0.6-1.4-0.4-2.9 0.4-3.4 1.9z"/><path class="b" d="m109.8 220.5c0.2-0.5 0.7-0.8 1.1-0.6 0.5 0.2 0.8 0.7 0.6 1.2-0.2 0.5-0.7 0.8-1.2 0.6-0.4-0.1-0.7-0.7-0.5-1.2z"/></g></g><g clip-path="url(#cp38)"><g clip-path="url(#cp39)"><path class="d" d="m121.9 208.7q0.5 0.2 0.9 0.5 0.3 0.4 0.5 0.8 0.2 0.5 0.3 1 0 0.6-0.2 1.1-0.2 0.5-0.5 0.9-0.3 0.4-0.8 0.7-0.5 0.2-1 0.3-0.5 0-0.9-0.2-0.5-0.1-0.9-0.5-0.3-0.3-0.5-0.8-0.2-0.5-0.3-1 0-0.5 0.2-1 0.2-0.5 0.5-0.9 0.4-0.5 0.8-0.7 0.5-0.3 1-0.3 0.5 0 0.9 0.1z"/><path class="b" d="m118.9 210.8c-0.3 0.9-0.2 1.8 0.4 2.5-0.7-0.7-0.9-1.7-0.6-2.8 0.5-1.4 1.9-2.2 3.2-1.8q0.7 0.3 1.2 0.9-0.4-0.4-0.9-0.6c-1.3-0.4-2.8 0.4-3.3 1.8z"/><path class="b" d="m119.6 209.6c0.2-0.5 0.7-0.8 1.1-0.6 0.5 0.1 0.7 0.6 0.5 1.1-0.2 0.5-0.7 0.8-1.1 0.6-0.4-0.1-0.7-0.6-0.5-1.1z"/></g></g><g clip-path="url(#cp40)"><g clip-path="url(#cp41)"><g clip-path="url(#cp42)"><path class="d" d="m112.3 183.4c0.3-0.9 1.2-1.4 2.1-1.1 0.8 0.3 1.2 1.3 0.9 2.2-0.3 0.9-1.2 1.4-2 1.1-0.9-0.3-1.3-1.3-1-2.2z"/><path class="b" d="m112.5 183.6c-0.3 0.6-0.1 1.2 0.2 1.6-0.5-0.4-0.6-1.1-0.4-1.8 0.3-0.9 1.2-1.4 2-1.1 0.4 0.1 0.6 0.3 0.8 0.6q-0.3-0.3-0.6-0.4c-0.8-0.3-1.7 0.2-2 1.1z"/></g><path class="b" d="m112.9 182.9c0.1-0.4 0.4-0.5 0.7-0.4 0.3 0.1 0.5 0.4 0.3 0.7-0.1 0.4-0.4 0.5-0.7 0.4-0.3-0.1-0.4-0.4-0.3-0.7z"/></g></g><g clip-path="url(#cp43)"><g clip-path="url(#cp44)"><g clip-path="url(#cp45)"><path class="d" d="m77.3 182.5c0.5-1.4 2-2.2 3.3-1.8 1.3 0.5 2 2 1.5 3.4-0.5 1.5-2 2.3-3.3 1.8-1.4-0.4-2-2-1.5-3.4z"/></g><path class="b" d="m77.5 182.8c-0.3 0.9-0.2 1.9 0.4 2.6-0.7-0.7-1-1.8-0.6-2.9 0.5-1.4 1.9-2.3 3.3-1.8q0.8 0.3 1.1 0.9c-0.2-0.3-0.5-0.5-0.9-0.6-1.3-0.4-2.8 0.3-3.3 1.8z"/><path class="b" d="m78.2 181.6c0.1-0.5 0.7-0.8 1.1-0.7 0.5 0.2 0.7 0.7 0.6 1.2-0.2 0.5-0.7 0.8-1.2 0.7-0.5-0.2-0.7-0.7-0.5-1.2z"/></g></g><path class="d" d="m65.7 181.3q0.5 0.2 0.9 0.5 0.4 0.4 0.6 0.9 0.2 0.5 0.2 1 0 0.5-0.2 1.1-0.1 0.5-0.5 0.9-0.3 0.4-0.8 0.7-0.5 0.2-1 0.3-0.5 0-1-0.1-0.5-0.2-0.8-0.5-0.4-0.4-0.6-0.9-0.2-0.5-0.3-1 0-0.6 0.2-1.1 0.2-0.5 0.5-0.9 0.4-0.5 0.8-0.7 0.5-0.3 1-0.3 0.5-0.1 1 0.1z"/><path class="b" d="m62.7 183.4c-0.4 1-0.2 1.9 0.3 2.6-0.7-0.7-0.9-1.8-0.6-2.8 0.5-1.5 2-2.3 3.3-1.9q0.8 0.3 1.2 0.9c-0.3-0.2-0.6-0.5-0.9-0.6-1.3-0.4-2.8 0.4-3.3 1.8z"/><path class="b" d="m63.4 182.2c0.1-0.5 0.6-0.8 1.1-0.6 0.5 0.1 0.7 0.7 0.5 1.2-0.1 0.5-0.6 0.8-1.1 0.6-0.5-0.2-0.7-0.7-0.5-1.2z"/><g clip-path="url(#cp46)"><g clip-path="url(#cp47)"><g clip-path="url(#cp48)"><path class="d" d="m133 180.6c0.3-1 1.3-1.5 2.2-1.2 0.9 0.3 1.4 1.4 1 2.3-0.3 1-1.3 1.6-2.2 1.3-0.9-0.4-1.4-1.4-1-2.4z"/></g><g clip-path="url(#cp49)"><path class="b" d="m133.2 180.8c-0.2 0.7-0.1 1.3 0.2 1.8-0.4-0.5-0.6-1.2-0.4-1.9 0.4-1 1.3-1.6 2.2-1.3 0.4 0.1 0.6 0.4 0.8 0.6q-0.3-0.2-0.6-0.4c-0.9-0.3-1.9 0.3-2.2 1.2z"/></g><g clip-path="url(#cp50)"><path class="b" d="m133.6 180c0.1-0.3 0.5-0.5 0.8-0.4 0.3 0.1 0.4 0.4 0.3 0.8-0.1 0.3-0.4 0.5-0.7 0.4-0.4-0.1-0.5-0.5-0.4-0.8z"/></g></g></g><path class="d" d="m89.7 224.9q0.5 0.1 0.8 0.5 0.4 0.3 0.6 0.8 0.2 0.5 0.2 1.1 0 0.5-0.2 1.1-0.1 0.5-0.5 0.9-0.3 0.4-0.8 0.7-0.5 0.3-1 0.3-0.5 0.1-0.9-0.1-0.5-0.1-0.9-0.5-0.3-0.4-0.5-0.8-0.2-0.5-0.2-1.1-0.1-0.5 0.1-1.1 0.2-0.5 0.6-0.9 0.3-0.5 0.8-0.7 0.4-0.3 0.9-0.3 0.5-0.1 1 0.1z"/><path class="b" d="m86.7 227.1c-0.3 0.9-0.2 1.9 0.3 2.6-0.7-0.7-0.9-1.8-0.6-2.9 0.5-1.5 2-2.3 3.3-1.9q0.7 0.3 1.2 0.9c-0.3-0.3-0.6-0.5-0.9-0.6-1.4-0.5-2.8 0.4-3.3 1.9z"/><path class="b" d="m87.3 225.8c0.2-0.5 0.7-0.8 1.2-0.7 0.4 0.2 0.7 0.7 0.5 1.2-0.2 0.5-0.7 0.8-1.2 0.7-0.5-0.2-0.6-0.7-0.5-1.2z"/><g clip-path="url(#cp51)"><g clip-path="url(#cp52)"><g clip-path="url(#cp53)"><path class="d" d="m80.4 200.2c-0.5 2.4-2.6 4.2-4.6 3.5-2.1-0.7-2.7-3.4-1.5-5.6 0.9-1.7 2.7-2.5 4.1-2 1.4 0.4 2.3 2.2 2 4.1z"/></g><g clip-path="url(#cp54)"><path class="b" d="m74.6 198.5c-0.7 1.4-0.8 2.9-0.2 4.2-0.9-1.3-0.9-3.1-0.1-4.6 0.9-1.8 2.6-2.6 4.1-2q0.8 0.2 1.3 0.9c-0.3-0.3-0.7-0.5-1-0.6-1.5-0.5-3.2 0.3-4.1 2.1z"/></g><path class="b" d="m77.6 197.6c-0.2 0.7-0.9 1.1-1.5 0.9-0.6-0.2-0.8-0.9-0.5-1.5 0.3-0.6 0.9-0.9 1.4-0.7 0.6 0.1 0.8 0.8 0.6 1.3z"/></g></g><path class="d" d="m66.6 212c0.8 1.5 0.2 3.5-1.6 4-1.7 0.6-3.4-0.6-3.6-2.3-0.2-1.4 0.7-2.7 1.9-3.1 1.2-0.4 2.6 0.1 3.3 1.4z"/><path class="b" d="m61.8 213.8c0.2 1 0.9 1.9 1.9 2.3-1.2-0.2-2.1-1.2-2.3-2.4-0.2-1.5 0.7-2.7 1.9-3.1 0.4-0.2 0.9-0.2 1.3-0.1-0.3-0.1-0.6 0-1 0.1-1.2 0.4-2 1.7-1.8 3.2z"/><path class="b" d="m63.5 211.8c0.1 0.5-0.2 1-0.7 1.2-0.5 0.2-1-0.1-1-0.6-0.1-0.4 0.2-0.9 0.6-1 0.5-0.2 1 0 1.1 0.4z"/><g clip-path="url(#cp55)"><g clip-path="url(#cp56)"><g clip-path="url(#cp57)"><path class="d" d="m91.7 205.6c-1.2 1.2-2.5 1.8-3.6 1.3-1.2-0.4-1.9-1.8-1-3.4 0.9-1.5 3.4-2.2 4.8-1.4 1.3 0.8 0.9 2.3-0.2 3.5z"/></g><g clip-path="url(#cp58)"><path class="b" d="m87.3 203.8c-0.5 1-0.4 1.9 0 2.6-0.6-0.7-0.9-1.8-0.2-2.9 0.9-1.6 3.4-2.2 4.7-1.4 0.5 0.2 0.8 0.7 0.9 1.1-0.1-0.3-0.4-0.6-0.7-0.8-1.4-0.8-3.7-0.1-4.7 1.4z"/></g><g clip-path="url(#cp59)"><path class="b" d="m90.3 203.2c-0.5 0.5-1.1 0.7-1.6 0.6-0.4-0.2-0.6-0.8-0.2-1.3 0.4-0.5 1.2-0.7 1.7-0.5 0.5 0.2 0.5 0.8 0.1 1.2z"/></g></g></g><path class="d" d="m98.2 186.4c-0.4 1.7-1.3 3-2.5 3.6-1.3 0.5-2.8 0.1-2.8-1.7 0-1.8 1.9-4.1 3.5-4.6 1.8-0.5 2.2 0.9 1.8 2.7z"/><path class="b" d="m93.3 188.3c0 1.1 0.6 1.8 1.4 1.9-0.9 0-1.8-0.6-1.8-1.9 0-1.8 1.9-4.1 3.5-4.6 0.6-0.2 1.1-0.1 1.4 0.2q-0.4-0.2-1.1-0.1c-1.6 0.5-3.4 2.8-3.4 4.5z"/><path class="b" d="m95.6 185.7c-0.1 0.7-0.6 1.3-1.1 1.5-0.6 0.3-1 0-0.9-0.7 0.1-0.6 0.7-1.4 1.3-1.6 0.6-0.2 0.9 0.2 0.7 0.8z"/><path class="d" d="m116.1 202.8c-0.9 1.8-2.2 2.9-3.6 2.8-1.4-0.2-2.7-1.6-2.2-3.7 0.5-2.1 3-3.8 4.8-3.3 1.9 0.5 2 2.5 1 4.2z"/><path class="b" d="m110.6 202.1c-0.3 1.4 0.2 2.4 0.8 3.1-0.9-0.6-1.5-1.8-1.2-3.3 0.5-2.1 3.1-3.8 4.9-3.2 0.7 0.1 1.1 0.5 1.4 1q-0.4-0.5-1.1-0.7c-1.8-0.5-4.3 1-4.8 3.1z"/><path class="b" d="m113.7 200.5c-0.3 0.7-1 1.2-1.6 1.1-0.6-0.1-0.9-0.6-0.7-1.4 0.3-0.7 1.1-1.2 1.8-1.1 0.6 0.1 0.9 0.7 0.5 1.4z"/><path class="d" d="m124.5 224.6c-0.7 1.2-1.5 1.9-2.5 1.8-1-0.1-1.9-1.1-1.6-2.5 0.4-1.5 2.1-2.5 3.4-2.2 1.2 0.3 1.3 1.7 0.7 2.9z"/><path class="b" d="m120.7 224.1c-0.2 0.9 0.1 1.6 0.6 2.1-0.6-0.4-1.1-1.3-0.9-2.3 0.4-1.5 2.1-2.5 3.4-2.2 0.4 0.1 0.7 0.4 0.9 0.7q-0.3-0.3-0.7-0.5c-1.3-0.3-3 0.8-3.3 2.2z"/><path class="b" d="m122.8 223c-0.2 0.4-0.7 0.8-1 0.7-0.4 0-0.7-0.4-0.5-0.9 0.2-0.5 0.7-0.9 1.2-0.8 0.4 0.1 0.6 0.5 0.3 1z"/><path class="d" d="m84.3 214.2c0.2 1.3 0 2.3-0.9 2.6-0.8 0.4-2.1-0.1-2.7-1.4-0.7-1.4 0-3.1 1.2-3.3 1.3-0.3 2.1 0.9 2.4 2.1z"/><path class="b" d="m81 215.4c0.4 0.9 1.1 1.4 1.8 1.5-0.8 0-1.6-0.5-2.1-1.5-0.6-1.4 0.1-3.1 1.3-3.3 0.4-0.1 0.8 0 1.2 0.2-0.3-0.1-0.6-0.2-0.9-0.1-1.2 0.2-1.9 1.9-1.3 3.2z"/><path class="b" d="m82 213.6c0.1 0.5-0.1 0.9-0.4 1.1-0.4 0.1-0.8-0.1-0.9-0.6-0.2-0.6 0-1.1 0.4-1.2 0.4-0.1 0.8 0.2 0.9 0.7z"/><g clip-path="url(#cp60)"><g clip-path="url(#cp61)"><g clip-path="url(#cp62)"><path class="d" d="m151.3 170.2l-18.1 61.8c-0.4 1.2-1.2 2.1-2.3 2.7-5 2.4-12.1 3.7-20.7 3.7-8.1 0-16.9-1.1-25.2-3.3q-2-0.5-3.9-1.1c-0.1 0-0.1 0-0.1 0q-0.8-0.3-1.6-0.5-1.2-0.4-2.4-0.9-1.5-0.5-3-1.1c-1.1-0.4-2.2-0.9-3.2-1.4-3-1.4-5.8-3-8-4.6q-1.9-1.4-3.3-2.9c-0.8-0.9-1.3-2-1.2-3.2l1.9-51.1c1.5 0.3 4.1 0.8 7.2 1.6 2.9 0.7 6.2 1.6 9.7 2.5 2.1 0.6 4.2 1.1 6.3 1.7q3.2 0.9 6 1.6c3.8 1.1 7.1 1.9 9.1 2.4 1.2 0.4 3.1 0.5 5.7 0.5 12.8 0 39.6-7.3 47.1-8.4z"/></g></g></g><path class="b" d="m151.3 170.2c-0.1 5.3-20.9 9-45.7 8.6-24.8-0.4-45.4-5-45.3-10.4 0.1-5.3 20.8-9.3 45.6-8.9 24.7 0.4 45.5 5.4 45.4 10.7z"/><path class="b" d="m86.8 167.1c1.1-0.7 2.3-1 3.5-1.3q1.9-0.5 3.8-0.5c-2.4 0.7-4.9 1.1-7.3 1.8z"/><path class="b" d="m100.3 164.8c1.9-0.4 3.8-0.4 5.6 0-1.8 0.2-3.7 0.2-5.6 0z"/><path class="b" d="m111.9 173.4c-4.4 0.5-8.9 0.5-13.3-0.3 4.3 0.1 9.1 0.3 13.3 0.3z"/><g clip-path="url(#cp63)"><g clip-path="url(#cp64)"><g clip-path="url(#cp65)"><path class="b" d="m91.7 172.2c-1.8-0.2-5.9-1-6.6-3 0.8 1 2.1 1.3 3.1 1.8 1.2 0.4 2.4 0.7 3.5 1.2z"/></g></g></g><path class="d" d="m99.2 171.6q0-0.1 0-0.2c-0.1-1.6-1.7-2.8-3.7-2.7-1.9 0-3.4 1.3-3.4 2.9z"/><path class="b" d="m92.6 171.6c0.1-1.5 1.6-2.7 3.4-2.7 0.6-0.1 1 0 1.5 0.2-0.6-0.3-1.3-0.4-1.9-0.4-2 0.1-3.4 1.4-3.5 2.9z"/><path class="b" d="m94 169.4c0.6 0 1.2 0.4 1.2 0.9 0.1 0.6-0.5 1-1.1 1-0.7 0.1-1.3-0.4-1.3-0.9 0-0.5 0.5-0.9 1.2-1z"/><path class="d" d="m77.9 165.2q0-0.1 0-0.2c0-1.2-1.3-2.2-2.8-2.1-1.5 0-2.6 1-2.7 2.2z"/><path class="b" d="m72.8 165.2c0.1-1.2 1.2-2.1 2.7-2.1 0.4-0.1 0.8 0 1.1 0.1-0.4-0.2-1-0.3-1.5-0.3-1.5 0.1-2.6 1.1-2.7 2.3z"/><path class="b" d="m73.9 163.5c0.5 0 0.9 0.3 0.9 0.7 0 0.4-0.4 0.8-0.9 0.8-0.5 0-0.9-0.3-0.9-0.7 0-0.4 0.4-0.7 0.9-0.8z"/><path class="d" d="m117.3 166.4c0-1.4-1-2.7-2.4-3.1-1.9-0.7-3.9 0.3-4.5 2-0.1 0.4-0.1 0.7-0.1 1.1z"/><path class="b" d="m110.7 166.4c0-0.3 0-0.5 0.1-0.7 0.6-1.8 2.6-2.7 4.5-2.1q0.7 0.3 1.3 0.8-0.7-0.8-1.7-1.2c-1.9-0.6-3.8 0.3-4.4 2.1-0.2 0.3-0.2 0.7-0.2 1z"/><path class="b" d="m111.7 164.2c0.2-0.6 0.8-0.9 1.4-0.7 0.7 0.2 1 0.9 0.8 1.4-0.2 0.6-0.9 0.9-1.5 0.7-0.6-0.2-1-0.8-0.7-1.4z"/><path class="d" d="m120.2 171.3c0-0.7-0.5-1.4-1.3-1.7-1.1-0.4-2.2 0.1-2.5 1.1-0.1 0.2-0.1 0.4-0.1 0.6z"/><path class="b" d="m116.5 171.3c0-0.1 0-0.3 0.1-0.4 0.3-0.9 1.5-1.4 2.5-1.1 0.3 0.1 0.5 0.3 0.7 0.4-0.2-0.2-0.5-0.5-0.9-0.6-1.1-0.4-2.1 0.1-2.5 1.1-0.1 0.2-0.1 0.4-0.1 0.6z"/><path class="b" d="m117.9 169.7q0.3 0.1 0.4 0.4 0.1 0.2 0 0.4-0.1 0.3-0.3 0.4-0.2 0.1-0.5 0-0.3-0.1-0.4-0.3-0.2-0.3-0.1-0.5 0.1-0.3 0.4-0.4 0.2-0.1 0.5 0z"/><path class="d" d="m128.2 162.7c-0.1-0.8-0.6-1.5-1.4-1.8-1-0.3-2.1 0.2-2.5 1.1-0.1 0.3-0.1 0.4-0.1 0.7z"/><path class="b" d="m124.5 162.7c0-0.2 0-0.3 0.1-0.4 0.3-1 1.4-1.5 2.5-1.2 0.3 0.2 0.5 0.3 0.7 0.5-0.3-0.3-0.6-0.5-1-0.7-1-0.3-2.1 0.2-2.4 1.1-0.1 0.3-0.2 0.4-0.2 0.7z"/><path class="b" d="m125 161.4c0.1-0.3 0.5-0.4 0.8-0.3 0.4 0.1 0.6 0.4 0.5 0.8-0.1 0.3-0.5 0.4-0.9 0.3-0.3-0.1-0.5-0.4-0.4-0.8z"/><path class="b" d="m89.2 162.3c6.2-0.9 12.6-1.1 18.9-0.6-6.2 0.2-12.7 0.3-18.9 0.6z"/><path class="d" d="m96.1 162.2c0-0.4-0.3-0.8-0.7-0.9-0.6-0.2-1.1 0.1-1.3 0.6q-0.1 0.2-0.1 0.3z"/><path class="b" d="m94.1 162.2c0-0.1 0.1-0.2 0.1-0.2 0.2-0.5 0.7-0.8 1.3-0.6q0.2 0.1 0.4 0.2c-0.2-0.1-0.3-0.3-0.5-0.3-0.6-0.2-1.1 0.1-1.3 0.6q-0.1 0.1-0.1 0.3z"/><path class="b" d="m94.4 161.6c0.1-0.2 0.3-0.3 0.5-0.2 0.1 0.1 0.3 0.2 0.2 0.4-0.1 0.2-0.3 0.3-0.5 0.2-0.1-0.1-0.2-0.3-0.2-0.4z"/><g clip-path="url(#cp66)"><g clip-path="url(#cp67)"><g clip-path="url(#cp68)"><path class="d" d="m151.3 170.2c-0.1 5.3-20.9 9-45.7 8.6-24.8-0.4-45.4-5-45.3-10.4 0.1-5.3 20.8-9.3 45.6-8.9 24.7 0.4 45.5 5.4 45.4 10.7z"/></g></g></g><g clip-path="url(#cp69)"><g clip-path="url(#cp70)"><g clip-path="url(#cp71)"><path class="b" d="m122.8 162.9c3.5 0.3 7.1 0.9 10.4 2.1-3.4-0.6-7.1-1.3-10.4-2.1z"/></g></g></g><g clip-path="url(#cp72)"><g clip-path="url(#cp73)"><g clip-path="url(#cp74)"><path class="b" d="m137.1 173.3c-1.7 0.9-3.6 1.4-5.6 1.5 1.8-0.7 3.7-1.2 5.6-1.6z"/></g></g></g><g clip-path="url(#cp75)"><g clip-path="url(#cp76)"><g clip-path="url(#cp77)"><path class="b" d="m101.1 176.5c-7.1 0-14.3-0.7-21.2-2.7 7 1.4 14.1 2 21.2 2.7z"/></g></g></g><g clip-path="url(#cp78)"><g clip-path="url(#cp79)"><g clip-path="url(#cp80)"><path class="b" d="m70.8 169.6c-1.7-2.6 3.1-4.5 5-5q1.3-0.4 2.6-0.6l-2.5 0.9c-1.7 0.7-6.3 2.2-5.1 4.7z"/></g></g></g><path class="b" d="m147.3 170.1h-14.5l-5.7-39.6q3.3 0.4 6.5 0.6c0.4 0.1 0.7 0.1 1.1 0.2 1.7 0.1 3.3 0.2 4.9 0.4z"/><path class="c" d="m130.5 170.1l-5.6-39.2 4.4-0.7 5.6 39.9z"/><path class="c" d="m142.8 170.1l-5.4-38.1 4.4-0.7 5.5 38.8z"/><g clip-path="url(#cp81)"><g clip-path="url(#cp82)"><g clip-path="url(#cp83)"><path class="c" d="m145.1 169.8l-2.2 0.3h-2.8l-5.4-38.8c1.7 0.1 3.3 0.3 4.9 0.4z"/></g></g></g><g clip-path="url(#cp84)"><g clip-path="url(#cp85)"><g clip-path="url(#cp86)"><path class="b" d="m146.7 167.7c1 0.1 3.1 0.3 3.6 1.2 0.2 0.5-0.3 0.8-0.6 1-0.8 0.5-1.8 0.6-2.7 0.6 0.9-0.4 2-0.5 2.8-1.2 0.5-0.6-2.6-1.4-3.1-1.6z"/></g></g></g><g clip-path="url(#cp87)"><g clip-path="url(#cp88)"><g clip-path="url(#cp89)"><g clip-path="url(#cp90)"><g clip-path="url(#cp91)"><g clip-path="url(#cp92)"><path class="c" d="m171.6 135.9l-7.3 8.4-22.9 88.5c0 0-10.6 16.3-39.6 12-0.5-2-1.8-2.9-1.8-2.9 16.8-6.7 29.1-11.7 34.9-37.8l14.1-72c0 0 14.3-1 20.4-2z"/></g></g></g></g></g></g><g clip-path="url(#cp93)"><g clip-path="url(#cp94)"><g clip-path="url(#cp95)"><path class="b" d="m84.3 123c-3.2 11-5.5 30.1-7.1 49.5-2 25-6 49-6.3 57.7-3-1.4-5.7-3-7.9-4.6l4.5-55.6 4.1-48.6c0 0 2.2 1.8 12.7 1.6z"/></g></g></g><g clip-path="url(#cp96)"><g clip-path="url(#cp97)"><g clip-path="url(#cp98)"><path class="b" d="m96.3 125.8c-2.6 10-10.9 103.1-11.2 109.3q-2-0.5-4-1.1c0 0 0 0-0.1 0q-0.8-0.3-1.6-0.5-1.2-0.4-2.4-0.9c0.2-16.7 12.6-108.4 12.6-108.4 0 0 3.9 2.2 6.7 1.6z"/></g></g></g><path class="c" d="m109.7 246.6c-6.8 0-14-0.7-21.3-2.1-17-3.3-30.5-9.7-36.9-17.4-1.2-1.4-1.7-3.2-1.7-5l3-77.4-0.7-17.8c-2-1.6-3.1-4.3-2.9-7.3 0.2-2.2 1.1-4.1 2.4-5.5-2.7-3.5-3.6-8.4-2.1-12.7 1.3-3.8 4.2-6.5 8-7.3 3-16.1 10.3-29.4 21.1-38.4 10-8.4 22.8-13 36.2-13.1l0.1 4.5c-20.8 0.2-47.2 13.1-53.2 49.3l-0.3 1.8-1.8 0.1c-3.9 0.3-5.4 3-5.9 4.6-1.2 3.4 0 7.5 2.7 10l3 2.6-3.7 1.2c-1 0.3-1.9 1.8-2 3.4-0.1 0.6-0.1 2.8 1.6 3.7l1.2 0.6 0.7 20.4v0.1l-2.9 77.6c0 0.7 0.2 1.4 0.7 1.9 5.7 6.9 18.5 12.9 34.3 16 15.7 3 31.3 2.6 41.7-1.1 3.5-1.3 7.6-4.2 8.6-7.8l23.3-90.2 1.6-0.1c2.4-0.3 3.2-2.2 3.4-3.1 0.6-1.9 0.1-4-1.2-5l-2.6-2 2.8-1.7c3.1-1.9 5-5.5 4.9-9.1-0.1-3-1.6-5.5-4-6.7l-1.5-0.8 0.3-1.6c6.1-36.2-15.5-57.6-39.7-62.7l1-4.4c14 3 26.1 10.8 34 21.9 8.7 12.1 11.9 27.4 9.3 44.4 3.1 2.2 4.9 5.6 5 9.7 0.2 4.4-1.7 8.7-4.9 11.6 1.3 2.1 1.7 4.9 0.9 7.7-0.9 3-3 5.1-5.7 5.9l-22.6 87.3c-1.6 5.5-6.9 9.2-11.5 10.8-6.2 2.1-14 3.2-22.7 3.2z"/><path class="c" d="m115.2 63l-8.3-58.3 3 0.5c4 0.8 7.5 0.3 10.6-1.5l2.9-1.6 8.4 59.3-4.4 0.7-7.6-53.2q-3.6 1.3-7.6 1.1l7.5 52.4z"/><g clip-path="url(#cp99)"><g clip-path="url(#cp100)"><g clip-path="url(#cp101)"><path class="c" d="m125.1 132.5l5.4 37.6h12.4 4.4l-5.5-38.9z"/></g></g></g><path class="c" d="m152.3 114.7q-7.3 0-15.7-0.6c-4-0.3-8.3-0.7-12.6-1.2-24-2.9-48.4-8.4-65.4-14.9l1.6-4.1c16.7 6.3 40.7 11.7 64.3 14.5 4.3 0.5 8.5 0.9 12.4 1.2 12.9 1 23.8 0.8 31.5-0.5l0.7 4.5c-4.6 0.7-10.3 1.1-16.9 1.1z"/><path class="c" d="m152.8 134.4c-4.1 0-8.6-0.2-13.4-0.5-4-0.3-8.2-0.7-12.6-1.1-26-2.9-54.6-9.2-72.8-16.1l1.6-4.2c17.9 6.8 46 13 71.7 15.8 4.3 0.5 8.4 0.9 12.4 1.1 11.6 0.8 21.2 0.6 27.9-0.5l0.8 4.4c-4.2 0.7-9.5 1.1-15.6 1.1z"/><path class="c" d="m164.5 145.4c-10.4-0.3-20.6-2.1-30.8-3.8 7.6 0.2 15.3 0.4 23 0 2.5-0.2 5.1-0.4 7.5-0.7z"/><path class="c" d="m56.4 124.2c6.8 3.6 14 6.5 21.5 8.4 2.6 0.6 5.1 1.1 7.7 1.4-7.9 0.3-15.8-1.2-23.4-3.3q-3.9-1.1-7.6-2.4z"/><g clip-path="url(#cp102)"><g clip-path="url(#cp103)"><g clip-path="url(#cp104)"><g clip-path="url(#cp105)"><g clip-path="url(#cp106)"><g clip-path="url(#cp107)"><path class="c" d="m141 60.4c-1 6.2-11.3 4.9-16 4.4-6.8-0.3-10-1.6-7.5-2.9 3.8 0.8 8.8 1 12.2 0.5 8-0.7 9.8-4.7 2-7.5l0.6-2.2c5.1 1.3 9.2 4 8.7 7.7z"/></g></g></g></g></g></g><g clip-path="url(#cp108)"><path class="c" d="m111.9 8.6c-2.5 0-4.6-0.7-5-2.9-1.2-5.1 14.5-8.1 16.4-3.6 0.2 0.4 0.2 0.8 0.2 1.3-0.4 4.2-7.8 5-11.6 5.2z"/></g><path class="c" d="m125.7 64.9c-1.5 0-3.1-0.1-4.6-0.2q-2-0.2-3.9-0.6c-0.1 0-0.3 0-0.3 0-3.9-0.7-13-3-12.5-8.1 0.4-4.4 7.4-5.3 11.5-5.5l0.2 4.4c-4.1 0.2-6.3 1-7.1 1.5 0.8 0.8 3.5 2.3 8.7 3.3q0.1 0 0.2 0c1.2 0.3 2.4 0.4 3.6 0.5 2.8 0.3 5.6 0.3 7.9 0 3-0.3 4.4-0.9 5-1.3-0.4-0.4-1.4-1.1-3.4-1.9-0.9-0.3-1.9-0.6-3-0.9l1.1-4.3q1.8 0.5 3.4 1c5.7 2.1 6.7 4.7 6.6 6.5-0.2 2-2 4.6-9.1 5.4q-2.1 0.2-4.3 0.2z"/><g clip-path="url(#cp109)"><g clip-path="url(#cp110)"><g clip-path="url(#cp111)"><path class="c" d="m53.6 125.2c9.8 3.9 21.3 8.2 32 8.8-16.6 2.7-27.5-5.3-32 14.8 1.7-7.4 0.9-15.2-0.3-22.6-0.1-0.4-0.1-0.9 0.3-1z"/></g></g></g><g clip-path="url(#cp112)"><g clip-path="url(#cp113)"><g clip-path="url(#cp114)"><path class="c" d="m135 141.7l13.1 3.7c5.5 1.6 9.3 6.7 9.1 12.5l-0.2 10.1 7.3-23.7z"/></g></g></g><path class="b" d="m120.8 4c-0.8 0.7-2.8 1.5-5.3 1.9-2.2 0.4-4.2 0.5-5.4 0.1-0.4-0.1-0.7-0.3-0.8-0.5 0-0.1-0.1-0.1-0.1-0.1-0.1-0.9 2.4-2.1 5.8-2.7 3.2-0.5 6.1-0.3 6.2 0.6 0.1 0.2-0.1 0.5-0.4 0.7z"/><g clip-path="url(#cp115)"><g clip-path="url(#cp116)"><g clip-path="url(#cp117)"><path class="c" d="m120.8 4c-1.1-0.3-3.1-0.3-5.3 0.1-2.5 0.5-4.5 1.2-5.4 1.9-0.4-0.1-0.7-0.3-0.8-0.5 0-0.1-0.1-0.1-0.1-0.1-0.1-0.9 2.4-2.1 5.8-2.7 3.2-0.5 6.1-0.3 6.2 0.6 0.1 0.2-0.1 0.5-0.4 0.7z"/></g></g></g><g clip-path="url(#cp118)"><g clip-path="url(#cp119)"><g clip-path="url(#cp120)"><path class="c" d="m51.6 119.5c0.1 2.2 2.2 4.7 4.1 5.6-0.7-3.7 0.7-4 3.5-3.1q1.3 0.5 2.6 0.8c9.6 2.2 42.1 11.6 71 10.3-3.5 0.1-6.5-1.4-10-1.8-12.9-1.8-25.9-5.7-38.7-8.7q-9.5-2.3-19.1-4.6c-4-0.5-13.4-5.6-13.4 1.5z"/></g></g></g><g clip-path="url(#cp121)"><g clip-path="url(#cp122)"><g clip-path="url(#cp123)"><path class="c" d="m152.1 139.9c1.1-0.1 2.3-0.2 3.4-0.4 2.5-0.5 2.2-3.3-0.3-3.5l-13.2-2 21.1-1c4-0.8 8.1 1.3 6.5 5.8-3.7 7.3-16.8 4.5-23.6 4.2-1.6-0.2-4.5-0.1-5.7-1.3-1.3-1.4 2.6-1 3.5-1.1 2.8-0.2 5.6-0.5 8.3-0.7z"/></g></g></g><g clip-path="url(#cp124)"><g clip-path="url(#cp125)"><path class="c" d="m137.8 111.9q-3-0.3-6-0.6c-4.7-32.5-9.4-65-14.1-97.6 0-1.8-1.8-2.2-2.9-3.1-2.9-3.9 3.2-4.5 5.8-4.5 3.4-0.6 2.2 3.3 2.9 5.5 1.1 8.2 2.3 16.3 3.5 24.5 3.6 25.3 7.2 50.5 10.8 75.8z"/></g></g><g clip-path="url(#cp126)"><g clip-path="url(#cp127)"><g clip-path="url(#cp128)"><path class="b" d="m142.3 171.1c-2.7 0.5-5.5 0.5-8.2 0.1 1.4-0.2 2.8-0.2 4.1-0.2 1.4 0 2.7 0 4.1 0.1z"/></g></g></g><g clip-path="url(#cp129)"><g clip-path="url(#cp130)"><g clip-path="url(#cp131)"><path class="b" d="m132.9 172.1q-1.2 0.2-2.3 0.1c-0.8-0.1-1.5-0.1-2.2-0.5 1.5 0.4 3 0.2 4.5 0.4z"/></g></g></g><g clip-path="url(#cp132)"><g clip-path="url(#cp133)"><g clip-path="url(#cp134)"><path class="b" d="m128.8 170.8c-1.2 0-2.5-0.2-3.7-0.7-0.3-0.1-0.6-0.2-0.9-0.5-0.3-0.4-0.2-0.8 0.2-1.1 0.6-0.3 1.2-0.5 1.9-0.5-0.3 0.1-0.6 0.2-0.9 0.4-0.3 0.1-1.3 0.5-0.9 0.9 0.4 0.4 1.1 0.6 1.6 0.7 0.9 0.3 1.8 0.5 2.7 0.8z"/></g></g></g><g clip-path="url(#cp135)"><g clip-path="url(#cp136)"><g clip-path="url(#cp137)"><path class="b" d="m128.9 169.5c-0.5-0.1-1-0.2-1.5-0.4q-0.1-0.2-0.2-0.3c-0.2-0.5 0.6-0.7 1-0.8 0.3-0.1 0.7-0.2 1-0.2-0.5 0.2-1 0.3-1.4 0.5-1.2 0.5 0.6 1 1.1 1.2z"/></g></g></g><path class="b" d="m196.8 87.3q0.3 0.3 0.5 0.6 0.1 0.4 0.1 0.8 0 0.4-0.1 0.8-0.2 0.3-0.5 0.6-0.2 0.3-0.6 0.4-0.4 0.2-0.8 0.2-0.4 0-0.7-0.2-0.4-0.1-0.7-0.4-0.3-0.3-0.4-0.6-0.2-0.4-0.2-0.8 0-0.4 0.2-0.8 0.1-0.3 0.4-0.6 0.3-0.3 0.7-0.4 0.3-0.2 0.7-0.2 0.4 0 0.8 0.2 0.4 0.1 0.6 0.4z"/><path class="b" d="m60 58.6q0 0.4 0 0.8-0.1 0.4-0.2 0.8-0.2 0.4-0.4 0.7-0.2 0.3-0.5 0.6-0.3 0.3-0.6 0.6-0.3 0.2-0.7 0.4-0.4 0.1-0.8 0.2-0.3 0.1-0.7 0.1-0.5 0-0.9-0.1-0.3 0-0.7-0.2-0.4-0.1-0.7-0.3-0.4-0.2-0.7-0.5-0.3-0.3-0.5-0.6-0.2-0.3-0.4-0.7-0.2-0.4-0.2-0.8-0.1-0.4-0.1-0.8-0.1-0.4 0-0.8 0.1-0.4 0.2-0.7 0.2-0.4 0.4-0.8 0.2-0.3 0.5-0.6 0.3-0.3 0.6-0.5 0.3-0.2 0.7-0.4 0.3-0.2 0.7-0.3 0.4 0 0.8-0.1 0.4 0 0.8 0.1 0.4 0.1 0.8 0.2 0.4 0.2 0.7 0.4 0.4 0.2 0.6 0.5 0.3 0.2 0.6 0.6 0.2 0.3 0.4 0.7 0.1 0.3 0.2 0.7 0.1 0.4 0.1 0.8z"/><path class="b" d="m36.7 144.6q0 0.5-0.2 0.9-0.1 0.4-0.5 0.8-0.3 0.3-0.7 0.5-0.5 0.1-0.9 0.1-0.5 0-0.9-0.1-0.5-0.2-0.8-0.5-0.3-0.4-0.5-0.8-0.2-0.4-0.2-0.9 0-0.5 0.2-0.9 0.2-0.4 0.5-0.8 0.3-0.3 0.8-0.5 0.4-0.2 0.9-0.2 0.4 0 0.9 0.2 0.4 0.2 0.7 0.5 0.4 0.4 0.5 0.8 0.2 0.4 0.2 0.9z"/><path class="b" d="m180.5 186.1q0 0.7-0.3 1.3-0.2 0.6-0.7 1-0.4 0.5-1 0.7-0.6 0.3-1.3 0.3-0.6 0-1.2-0.3-0.6-0.2-1.1-0.7-0.4-0.4-0.7-1-0.2-0.6-0.2-1.3 0-0.6 0.2-1.2 0.3-0.6 0.7-1.1 0.5-0.4 1.1-0.7 0.6-0.2 1.2-0.2 0.7 0 1.3 0.2 0.6 0.3 1 0.7 0.5 0.5 0.7 1.1 0.3 0.6 0.3 1.2z"/><path class="c" d="m201.1 138.3l0.6 1.9c0.1 0.3 0.4 0.5 0.7 0.5h1.9c0.7 0 1 0.9 0.5 1.3l-1.6 1.1c-0.3 0.2-0.4 0.5-0.3 0.8l0.6 1.8c0.3 0.7-0.5 1.2-1.1 0.8l-1.5-1.1c-0.3-0.2-0.6-0.2-0.9 0l-1.6 1.1c-0.5 0.4-1.3-0.1-1-0.8l0.6-1.8c0.1-0.3 0-0.6-0.3-0.8l-1.6-1.1c-0.6-0.4-0.3-1.3 0.5-1.3h1.9c0.3 0 0.6-0.2 0.7-0.5l0.6-1.9c0.2-0.6 1.1-0.6 1.3 0z"/><path class="c" d="m161.9 45.2l0.4 1.2c0.1 0.2 0.3 0.4 0.4 0.4h1.3c0.4 0 0.6 0.5 0.3 0.8l-1 0.7c-0.2 0.1-0.3 0.3-0.2 0.5l0.4 1.2c0.1 0.4-0.4 0.8-0.7 0.5l-1-0.7c-0.2-0.1-0.4-0.1-0.6 0l-1 0.7c-0.4 0.3-0.8-0.1-0.7-0.5l0.4-1.2c0-0.2 0-0.4-0.2-0.5l-1-0.7c-0.4-0.3-0.2-0.9 0.3-0.9h1.2c0.3 0 0.4-0.1 0.5-0.3l0.4-1.2c0.1-0.4 0.7-0.4 0.8 0z"/><path class="c" d="m42.6 186.3l0.4 1.2c0.1 0.2 0.3 0.4 0.4 0.4h1.3c0.4 0 0.7 0.5 0.3 0.8l-1 0.7c-0.2 0.1-0.3 0.4-0.2 0.5l0.4 1.2c0.1 0.5-0.4 0.8-0.7 0.5l-1-0.7c-0.2-0.1-0.4-0.1-0.6 0l-1 0.7c-0.4 0.3-0.8-0.1-0.7-0.5l0.4-1.2c0.1-0.1 0-0.4-0.2-0.5l-1-0.7c-0.4-0.3-0.2-0.8 0.3-0.8h1.2c0.3 0 0.4-0.2 0.5-0.4l0.4-1.2c0.1-0.4 0.7-0.4 0.8 0z"/><path class="c" d="m24.8 93.2l1.1 0.8c0.2 0.1 0.4 0.1 0.6-0.1l1-0.8c0.3-0.3 0.8 0.1 0.7 0.5l-0.3 1.3c-0.1 0.2 0 0.4 0.2 0.5l1.1 0.7c0.4 0.2 0.2 0.8-0.3 0.9h-1.3c-0.2 0.1-0.4 0.2-0.4 0.4l-0.4 1.3c-0.1 0.4-0.7 0.4-0.9 0l-0.5-1.2c0-0.2-0.2-0.4-0.4-0.4l-1.3 0.1c-0.5 0-0.7-0.5-0.4-0.8l1.1-0.8c0.1-0.2 0.2-0.4 0.1-0.6l-0.5-1.2c0-0.4 0.4-0.8 0.8-0.6z"/></svg>